<?xml version="1.0" encoding="utf-8"?>
<!-- Generator: Adobe Illustrator 15.0.2, SVG Export Plug-In . SVG Version: 6.00 Build 0)  -->
<!DOCTYPE svg PUBLIC "-//W3C//DTD SVG 1.1//EN" "http://www.w3.org/Graphics/SVG/1.1/DTD/svg11.dtd">
<svg version="1.1" id="Layer_1" xmlns="http://www.w3.org/2000/svg" xmlns:xlink="http://www.w3.org/1999/xlink" x="0px" y="0px"
	 width="50px" height="68px" viewBox="0 0 50 68" enable-background="new 0 0 50 68" xml:space="preserve">
<g>
	<path fill="none" stroke="#231F20" stroke-width="4" stroke-miterlimit="10" d="M21.548,25.421
		c-5.667,5.669-2.616,15.397,6.369,16.394c8.185,0.907,13.79-11.837,7.802-15.827C29.727,21.994,24.094,22.875,21.548,25.421z"/>
	
		<line fill="none" stroke="#231F20" stroke-width="2" stroke-linecap="round" stroke-linejoin="round" stroke-miterlimit="10" x1="30.852" y1="28.888" x2="43.597" y2="11.832"/>
	<path fill="#231F20" d="M41.585,7.808c-2.588,2.958,3.02,6.539,6.036,3.52C50.64,8.31,45.107,3.783,41.585,7.808z"/>
	
		<line fill="none" stroke="#231F20" stroke-width="2" stroke-linecap="round" stroke-linejoin="round" stroke-miterlimit="10" x1="46.101" y1="35.412" x2="37.369" y2="35.838"/>
	<path fill="#231F20" d="M44.969,34.084c1.07-2.676,5.115-1.067,5.03,1.005c-0.08,1.903-1.303,2.924-2.46,2.924
		C46.331,38.014,43.74,37.155,44.969,34.084z"/>
	
		<line fill="none" stroke="#231F20" stroke-width="2" stroke-linecap="round" stroke-linejoin="round" stroke-miterlimit="10" x1="6.679" y1="31.47" x2="19.619" y2="33.209"/>
	<path fill="#231F20" d="M7.952,33.636c-2.193,3.526-7.524,0.229-6.882-2.69c0.587-2.679,2.583-3.818,4.224-3.528
		C7.006,27.721,10.467,29.588,7.952,33.636z"/>
	<path fill="none" stroke="#231F20" stroke-width="2" stroke-linecap="round" stroke-linejoin="round" stroke-miterlimit="10" d="
		M26.726,34.392c1.632,4.387,3.684,9.257,6.258,13.245"/>
	<path fill="#231F20" d="M31.021,47.996c-2.386,2.918,3.294,5.515,4.929,2.903C38.213,47.286,33.229,46.092,31.021,47.996z"/>
</g>
</svg>
