<?xml version="1.0" encoding="UTF-8" standalone="no"?>
<svg width="1397px" height="538px" viewBox="0 0 1397 538" version="1.1" xmlns="http://www.w3.org/2000/svg" xmlns:xlink="http://www.w3.org/1999/xlink" xmlns:sketch="http://www.bohemiancoding.com/sketch/ns">
    <!-- Generator: Sketch 3.3.2 (12043) - http://www.bohemiancoding.com/sketch -->
    <title>banner_hand</title>
    <desc>Created with Sketch.</desc>
    <defs></defs>
    <g id="Page-1" stroke="none" stroke-width="1" fill="none" fill-rule="evenodd" sketch:type="MSPage">
        <g id="banner_hand" sketch:type="MSLayerGroup">
            <path d="M970.778,378.361 L972.339,362.895 L972.171,362.767 L948.915,386.117 L970.778,378.361" id="Fill-1" fill="#D3C222" sketch:type="MSShapeGroup"></path>
            <path d="M948.915,386.117 L972.171,362.767 L972.079,362.697 L931.818,368.443 L948.915,386.117" id="Fill-2" fill="#EFDE3F" sketch:type="MSShapeGroup"></path>
            <path d="M957.535,346.094 L957.411,345.999 L938.032,349.56 L931.818,368.443 L957.535,346.094" id="Fill-3" fill="#EBDC2F" sketch:type="MSShapeGroup"></path>
            <path d="M931.818,368.443 L972.079,362.697 L957.535,346.094 L931.818,368.443" id="Fill-4" fill="#F8E539" sketch:type="MSShapeGroup"></path>
            <path d="M931.446,368.491 L938.032,349.56 L928.461,370.62 L931.471,368.668 L931.446,368.491" id="Fill-5" fill="#F8E539" sketch:type="MSShapeGroup"></path>
            <path d="M931.471,368.668 L931.818,368.443 L931.446,368.491 L931.471,368.668" id="Fill-6" fill="#F8E539" sketch:type="MSShapeGroup"></path>
            <path d="M931.818,368.443 L938.032,349.56 L931.446,368.491 L931.818,368.443" id="Fill-7" fill="#F8E539" sketch:type="MSShapeGroup"></path>
            <path d="M931.583,368.753 L931.471,368.668 L928.461,370.62 L947.979,385.408 L931.583,368.753" id="Fill-8" fill="#F4E553" sketch:type="MSShapeGroup"></path>
            <path d="M931.471,368.668 L931.583,368.753 L931.818,368.443 L931.471,368.668" id="Fill-9" fill="#F4E553" sketch:type="MSShapeGroup"></path>
            <path d="M947.979,385.408 L948.915,386.117 L931.818,368.443 L931.583,368.753 L947.979,385.408" id="Fill-10" fill="#F4E553" sketch:type="MSShapeGroup"></path>
            <path d="M969.226,380.742 L970.778,378.361 L948.915,386.117 L969.226,380.742" id="Fill-11" fill="#F8E539" sketch:type="MSShapeGroup"></path>
            <path d="M948.351,388.247 L969.226,380.742 L948.915,386.117 L948.351,388.247" id="Fill-12" fill="#D3C222" sketch:type="MSShapeGroup"></path>
            <path d="M948.704,386.143 L947.979,385.408 L928.461,370.62 L948.351,388.247 L948.915,386.117 L948.704,386.143" id="Fill-13" fill="#EBDC2F" sketch:type="MSShapeGroup"></path>
            <path d="M948.704,386.143 L948.915,386.117 L947.979,385.408 L948.704,386.143" id="Fill-14" fill="#EBDC2F" sketch:type="MSShapeGroup"></path>
            <path d="M936.445,351.599 L928.461,370.62 L938.032,349.56 L936.445,351.599" id="Fill-15" fill="#D3C222" sketch:type="MSShapeGroup"></path>
            <path d="M1250.402,375.519 L1240.663,370.756 L1240.538,370.835 L1250.185,391.696 L1250.402,375.519" id="Fill-16" fill="#D3C222" sketch:type="MSShapeGroup"></path>
            <path d="M1250.185,391.696 L1240.538,370.835 L1240.47,370.879 L1234.488,398.603 L1250.185,391.696" id="Fill-17" fill="#EFDE3F" sketch:type="MSShapeGroup"></path>
            <path d="M1226.091,376.374 L1225.999,376.433 L1223.64,389.97 L1234.488,398.603 L1226.091,376.374" id="Fill-18" fill="#EBDC2F" sketch:type="MSShapeGroup"></path>
            <path d="M1240.47,370.879 L1226.091,376.374 L1234.488,398.603 L1240.47,370.879" id="Fill-19" fill="#F8E539" sketch:type="MSShapeGroup"></path>
            <path d="M1234.551,398.884 L1234.429,398.858 L1223.64,389.97 L1235.099,401.326 L1234.551,398.884" id="Fill-20" fill="#F8E539" sketch:type="MSShapeGroup"></path>
            <path d="M1234.429,398.858 L1234.551,398.884 L1234.488,398.603 L1234.429,398.858" id="Fill-21" fill="#F8E539" sketch:type="MSShapeGroup"></path>
            <path d="M1234.488,398.603 L1223.64,389.97 L1234.429,398.858 L1234.488,398.603" id="Fill-22" fill="#F8E539" sketch:type="MSShapeGroup"></path>
            <path d="M1234.634,398.832 L1234.552,398.884 L1234.551,398.884 L1235.099,401.326 L1249.495,392.136 L1234.634,398.832" id="Fill-23" fill="#F4E553" sketch:type="MSShapeGroup"></path>
            <path d="M1234.634,398.832 L1234.488,398.603 L1234.551,398.884 L1234.552,398.884 L1234.634,398.832" id="Fill-24" fill="#F4E553" sketch:type="MSShapeGroup"></path>
            <path d="M1249.495,392.136 L1250.185,391.696 L1234.488,398.603 L1234.634,398.832 L1249.495,392.136" id="Fill-25" fill="#F4E553" sketch:type="MSShapeGroup"></path>
            <path d="M1251.584,377.11 L1250.402,375.519 L1250.185,391.696 L1251.584,377.11" id="Fill-26" fill="#F8E539" sketch:type="MSShapeGroup"></path>
            <path d="M1251.442,392.581 L1251.584,377.11 L1250.185,391.696 L1251.442,392.581" id="Fill-27" fill="#D3C222" sketch:type="MSShapeGroup"></path>
            <path d="M1250.151,391.841 L1249.495,392.136 L1235.099,401.326 L1251.442,392.581 L1250.185,391.696 L1250.151,391.841" id="Fill-28" fill="#EBDC2F" sketch:type="MSShapeGroup"></path>
            <path d="M1250.151,391.841 L1250.185,391.696 L1249.495,392.136 L1250.151,391.841" id="Fill-29" fill="#EBDC2F" sketch:type="MSShapeGroup"></path>
            <path d="M1235.099,401.326 L1223.64,389.97 L1224.589,391.501 L1235.099,401.326" id="Fill-30" fill="#D3C222" sketch:type="MSShapeGroup"></path>
            <path d="M1114.552,435.623 L1107.021,423.144 L1106.817,423.11 L1101.912,449.856 L1114.552,435.623" id="Fill-31" fill="#D3C222" sketch:type="MSShapeGroup"></path>
            <path d="M1101.912,449.856 L1106.817,423.11 L1106.706,423.091 L1078.601,442.743 L1101.912,449.856" id="Fill-32" fill="#EFDE3F" sketch:type="MSShapeGroup"></path>
            <path d="M1078.601,442.743 L1085.989,415.834 L1085.839,415.808 L1072.761,425.878 L1078.601,442.743" id="Fill-33" fill="#EBDC2F" sketch:type="MSShapeGroup"></path>
            <path d="M1106.706,423.091 L1085.989,415.834 L1078.601,442.743 L1106.706,423.091" id="Fill-34" fill="#F8E539" sketch:type="MSShapeGroup"></path>
            <path d="M1078.337,442.921 L1072.761,425.878 L1077.217,445.686 L1078.458,443.047 L1078.337,442.921" id="Fill-35" fill="#F8E539" sketch:type="MSShapeGroup"></path>
            <path d="M1078.458,443.047 L1078.601,442.743 L1078.337,442.921 L1078.458,443.047" id="Fill-36" fill="#F8E539" sketch:type="MSShapeGroup"></path>
            <path d="M1078.601,442.743 L1072.761,425.878 L1078.337,442.921 L1078.601,442.743" id="Fill-37" fill="#F8E539" sketch:type="MSShapeGroup"></path>
            <path d="M1078.593,443.07 L1078.458,443.047 L1077.217,445.686 L1100.782,449.666 L1078.593,443.07" id="Fill-38" fill="#F4E553" sketch:type="MSShapeGroup"></path>
            <path d="M1078.458,443.047 L1078.593,443.07 L1078.601,442.743 L1078.458,443.047" id="Fill-39" fill="#F4E553" sketch:type="MSShapeGroup"></path>
            <path d="M1100.782,449.666 L1101.912,449.856 L1078.601,442.743 L1078.593,443.07 L1100.782,449.666" id="Fill-40" fill="#F4E553" sketch:type="MSShapeGroup"></path>
            <path d="M1114.69,438.039 L1114.552,435.623 L1101.912,449.856 L1114.69,438.039" id="Fill-41" fill="#F8E539" sketch:type="MSShapeGroup"></path>
            <path d="M1102.677,451.708 L1114.69,438.039 L1101.912,449.856 L1102.677,451.708" id="Fill-42" fill="#D3C222" sketch:type="MSShapeGroup"></path>
            <path d="M1101.762,449.957 L1100.782,449.666 L1077.217,445.686 L1102.677,451.708 L1101.912,449.856 L1101.762,449.957" id="Fill-43" fill="#EBDC2F" sketch:type="MSShapeGroup"></path>
            <path d="M1101.762,449.957 L1101.912,449.856 L1100.782,449.666 L1101.762,449.957" id="Fill-44" fill="#EBDC2F" sketch:type="MSShapeGroup"></path>
            <path d="M1072.678,428.046 L1077.217,445.686 L1072.761,425.878 L1072.678,428.046" id="Fill-45" fill="#D3C222" sketch:type="MSShapeGroup"></path>
            <path d="M1110.597,499.303 L1110.351,499.308 L1100.656,514.462 L1115.214,536.072 L1110.597,499.303" id="Fill-46" fill="#D3C222" sketch:type="MSShapeGroup"></path>
            <path d="M1143.682,531.307 L1110.732,499.301 L1110.597,499.303 L1115.214,536.072 L1143.682,531.307" id="Fill-47" fill="#EFDE3F" sketch:type="MSShapeGroup"></path>
            <path d="M1151.55,509.943 L1136.262,493.812 L1136.079,493.815 L1143.682,531.307 L1151.55,509.943" id="Fill-48" fill="#EBDC2F" sketch:type="MSShapeGroup"></path>
            <path d="M1136.079,493.815 L1110.732,499.301 L1143.682,531.307 L1136.079,493.815" id="Fill-49" fill="#F8E539" sketch:type="MSShapeGroup"></path>
            <path d="M1143.841,531.742 L1145.209,535.525 L1151.55,509.943 L1143.992,531.598 L1143.841,531.742" id="Fill-50" fill="#F8E539" sketch:type="MSShapeGroup"></path>
            <path d="M1143.992,531.598 L1143.682,531.307 L1143.841,531.742 L1143.992,531.598" id="Fill-51" fill="#F8E539" sketch:type="MSShapeGroup"></path>
            <path d="M1143.992,531.598 L1151.55,509.943 L1143.682,531.307 L1143.992,531.598" id="Fill-52" fill="#F8E539" sketch:type="MSShapeGroup"></path>
            <path d="M1143.84,531.743 L1143.677,531.746 L1116.585,536.047 L1145.209,535.525 L1143.841,531.742 L1143.84,531.743" id="Fill-53" fill="#F4E553" sketch:type="MSShapeGroup"></path>
            <path d="M1143.84,531.743 L1143.841,531.742 L1143.682,531.307 L1143.677,531.746 L1143.84,531.743" id="Fill-54" fill="#F4E553" sketch:type="MSShapeGroup"></path>
            <path d="M1143.677,531.746 L1143.682,531.307 L1115.214,536.072 L1116.585,536.047 L1143.677,531.746" id="Fill-55" fill="#F4E553" sketch:type="MSShapeGroup"></path>
            <path d="M1100.656,514.462 L1100.372,517.665 L1115.214,536.072 L1100.656,514.462" id="Fill-56" fill="#F8E539" sketch:type="MSShapeGroup"></path>
            <path d="M1115.214,536.121 L1100.372,517.738 L1113.874,538 L1114.413,538 L1115.214,536.121" id="Fill-57" fill="#D3C222" sketch:type="MSShapeGroup"></path>
            <path d="M1114.413,537.903 L1113.874,537.903 L1114.2,538.392 L1114.413,537.903" id="Fill-58" fill="#D3C222" sketch:type="MSShapeGroup"></path>
            <path d="M1115.389,536.237 L1115.214,536.121 L1114.413,538 L1119.49,538 L1145.209,535.574 L1116.585,536.071 L1115.389,536.237" id="Fill-59" fill="#EBDC2F" sketch:type="MSShapeGroup"></path>
            <path d="M1114.2,538.489 L1119.49,538 L1114.413,538 L1114.2,538.489" id="Fill-60" fill="#EBDC2F" sketch:type="MSShapeGroup"></path>
            <path d="M1116.585,536.047 L1115.214,536.072 L1115.389,536.237 L1116.585,536.047" id="Fill-61" fill="#EBDC2F" sketch:type="MSShapeGroup"></path>
            <path d="M1151.545,512.859 L1151.55,509.943 L1145.209,535.525 L1151.545,512.859" id="Fill-62" fill="#D3C222" sketch:type="MSShapeGroup"></path>
            <path d="M862.487,123.334 L863.27,122.413 L863.283,122.36 L862.488,123.333 L862.487,123.334" id="Fill-63" fill="#F9CEAE" sketch:type="MSShapeGroup"></path>
            <path d="M862.488,123.333 L894.667,0.667 L813.667,88 L860.765,123.158 L862.488,123.333" id="Fill-64" fill="#F9CEAE" sketch:type="MSShapeGroup"></path>
            <path d="M936,33.333 L894.667,0.667 L863.283,122.36 L936,33.333" id="Fill-65" fill="#E5BB9B" sketch:type="MSShapeGroup"></path>
            <path d="M863.283,122.36 L894.667,0.667 L862.488,123.333 L863.283,122.36" id="Fill-66" fill="#E5BB9B" sketch:type="MSShapeGroup"></path>
            <path d="M930.667,3.333 L894.667,0.667 L936,33.333 L930.667,3.333" id="Fill-67" fill="#F9CEAE" sketch:type="MSShapeGroup"></path>
            <path d="M860.509,123.132 L813.667,88 L797,116.667 L860.509,123.132" id="Fill-68" fill="#677481" sketch:type="MSShapeGroup"></path>
            <path d="M860.765,123.158 L813.667,88 L860.509,123.132 L860.765,123.158" id="Fill-69" fill="#677481" sketch:type="MSShapeGroup"></path>
            <path d="M813.667,88 L748.993,78 L797,116.667 L813.667,88" id="Fill-70" fill="#717E89" sketch:type="MSShapeGroup"></path>
            <path d="M796.885,116.907 L748.993,78.333 L748,111 L796.85,116.982 L796.885,116.907" id="Fill-71" fill="#7A8891" sketch:type="MSShapeGroup"></path>
            <path d="M846.707,142.456 L848.827,139.887 L848.666,139.613 L861.823,124.117 L860.742,123.306 L797,116.667 L844.334,145 L846.707,142.456" id="Fill-72" fill="#7A8891" sketch:type="MSShapeGroup"></path>
            <path d="M860.742,123.306 L861.823,124.117 L862.487,123.334 L862.488,123.333 L860.765,123.158 L861,123.333 L860.742,123.306" id="Fill-73" fill="#7A8891" sketch:type="MSShapeGroup"></path>
            <path d="M860.509,123.132 L797,116.667 L860.742,123.306 L860.509,123.132" id="Fill-74" fill="#7A8891" sketch:type="MSShapeGroup"></path>
            <path d="M861,123.333 L860.765,123.158 L860.509,123.132 L860.742,123.306 L861,123.333" id="Fill-75" fill="#7A8891" sketch:type="MSShapeGroup"></path>
            <path d="M685.334,87 L638,122.333 L702,115.667 L685.334,87" id="Fill-76" fill="#677481" sketch:type="MSShapeGroup"></path>
            <path d="M750.007,77 L685.334,87 L702,115.667 L750.007,77" id="Fill-77" fill="#717E89" sketch:type="MSShapeGroup"></path>
            <path d="M748.993,78 L702,116 L748,111 L748.993,78" id="Fill-78" fill="#7A8891" sketch:type="MSShapeGroup"></path>
            <path d="M702,116 L638,122.333 L654.667,144.333 L702,116" id="Fill-79" fill="#7A8891" sketch:type="MSShapeGroup"></path>
            <path d="M782.443,147.532 L748,219.333 L764.776,227.886 L782.443,147.532" id="Fill-80" fill="#73BDC1" sketch:type="MSShapeGroup"></path>
            <path d="M765.107,228.038 L765,248 L856,237.833 L765.107,228.038" id="Fill-81" fill="#73BDC1" sketch:type="MSShapeGroup"></path>
            <path d="M731.342,227.995 L731.333,228 L731.342,228 L731.342,227.995" id="Fill-82" fill="#5AABAC" sketch:type="MSShapeGroup"></path>
            <path d="M764.751,228 L764.776,227.886 L748,219.333 L731.885,227.713 L732.353,228 L764.751,228" id="Fill-83" fill="#5AABAC" sketch:type="MSShapeGroup"></path>
            <path d="M746.762,255.428 L749.333,256.667 L765,248 L733.334,248 L746.762,255.428" id="Fill-84" fill="#5AABAC" sketch:type="MSShapeGroup"></path>
            <path d="M733.334,248 L731.625,248 L731.433,248.048 L732.012,248.327 L733.334,248" id="Fill-85" fill="#5AABAC" sketch:type="MSShapeGroup"></path>
            <path d="M765,228.027 L764.751,228 L732.353,228 L753.289,240.825 L765,247.667 L765,228.027" id="Fill-86" fill="#67B7B7" sketch:type="MSShapeGroup"></path>
            <path d="M731.333,228 L731.342,228.005 L731.342,228 L731.333,228" id="Fill-87" fill="#67B7B7" sketch:type="MSShapeGroup"></path>
            <path d="M765,248 L753.289,240.825 L731.342,228.005 L731.625,248 L765,248" id="Fill-88" fill="#73BDC1" sketch:type="MSShapeGroup"></path>
            <path d="M731.333,227.375 L731.342,227.995 L731.885,227.713 L731.333,227.375" id="Fill-89" fill="#73BDC1" sketch:type="MSShapeGroup"></path>
            <path d="M732.353,228 L731.885,227.713 L731.342,227.995 L731.342,228 L732.353,228" id="Fill-90" fill="#73BDC1" sketch:type="MSShapeGroup"></path>
            <path d="M732.353,228 L731,228 L731,228.005 L753.118,240.825 L732.353,228" id="Fill-91" fill="#73BDC1" sketch:type="MSShapeGroup"></path>
            <path d="M783.498,145 L796.85,116.982 L748,111 L783.153,145 L783.498,145" id="Fill-92" fill="#F2F2F2" sketch:type="MSShapeGroup"></path>
            <path d="M783.657,145 L843.783,145 L797,116.667 L796.885,116.907 L797,117 L783.657,145" id="Fill-93" fill="#E1E5E5" sketch:type="MSShapeGroup"></path>
            <path d="M797,117 L796.885,116.907 L796.85,116.982 L797,117" id="Fill-94" fill="#E1E5E5" sketch:type="MSShapeGroup"></path>
            <path d="M844.334,145 L797,116.667 L843.783,145 L844.334,145" id="Fill-95" fill="#E1E5E5" sketch:type="MSShapeGroup"></path>
            <path d="M797,117 L796.85,116.982 L783.498,145 L783.657,145 L797,117" id="Fill-96" fill="#E1E5E5" sketch:type="MSShapeGroup"></path>
            <path d="M765.076,227.661 L844.131,145.211 L843.783,145 L783.657,145 L783.498,145.333 L765.076,227.661" id="Fill-97" fill="#ECEDED" sketch:type="MSShapeGroup"></path>
            <path d="M783.153,145 L783,145 L782.443,147.532 L783.498,145.333 L783.153,145" id="Fill-98" fill="#ECEDED" sketch:type="MSShapeGroup"></path>
            <path d="M844.334,145 L843.783,145 L844.131,145.211 L844.334,145" id="Fill-99" fill="#ECEDED" sketch:type="MSShapeGroup"></path>
            <path d="M764.833,227.915 L765.076,227.661 L783.498,145.333 L782.443,147.532 L764.776,227.886 L764.833,227.915" id="Fill-100" fill="#ECEDED" sketch:type="MSShapeGroup"></path>
            <path d="M764.776,227.886 L764.751,228 L764.833,227.915 L764.776,227.886" id="Fill-101" fill="#ECEDED" sketch:type="MSShapeGroup"></path>
            <path d="M783.657,145 L783.153,145 L783.498,145.333 L783.657,145" id="Fill-102" fill="#ECEDED" sketch:type="MSShapeGroup"></path>
            <path d="M748,111 L748,219 L783,145 L748,111" id="Fill-103" fill="#F4F4F4" sketch:type="MSShapeGroup"></path>
            <path d="M965.333,268 L942.333,240.667 L919.44,238.885 L918.758,239.39 L965.333,268" id="Fill-104" fill="#E5BB9B" sketch:type="MSShapeGroup"></path>
            <path d="M918.491,239.587 L963,287.666 L965.333,268 L918.758,239.39 L918.491,239.587" id="Fill-105" fill="#F9CEAE" sketch:type="MSShapeGroup"></path>
            <path d="M892.475,258.845 L872.666,274.613 L963,287.666 L918.491,239.587 L892.475,258.845" id="Fill-106" fill="#FEE6D4" sketch:type="MSShapeGroup"></path>
            <path d="M910.334,313.667 L963,287.666 L872.666,274.613 L910.334,313.667" id="Fill-107" fill="#F9CEAE" sketch:type="MSShapeGroup"></path>
            <path d="M889.796,311.674 L873.008,275.351 L873.333,290.333 L889.796,311.674" id="Fill-108" fill="#F9CEAE" sketch:type="MSShapeGroup"></path>
            <path d="M873.008,275.351 L873,275 L891.333,313.667 L891.058,314 L905.583,314 L910.334,313.667 L872.666,274.613 L873.008,275.351" id="Fill-109" fill="#F4D2B9" sketch:type="MSShapeGroup"></path>
            <path d="M891.333,313.667 L873,275 L873.008,275.351 L889.796,311.674 L891.333,313.667" id="Fill-110" fill="#F4D2B9" sketch:type="MSShapeGroup"></path>
            <path d="M765,228.027 L765,228.038 L765,227.872 L855.946,237.833 L855.964,237.758 L849,231.833 L849,219.052 L848.666,218.613 L853.058,214.43 L844.37,145.289 L844.334,145.333 L844.131,145.211 L765.076,227.661 L765,228 L765,228.027" id="Fill-111" fill="#E1E5E5" sketch:type="MSShapeGroup"></path>
            <path d="M844.334,145.333 L844.37,145.289 L844.334,145 L844.131,145.211 L844.334,145.333" id="Fill-112" fill="#E1E5E5" sketch:type="MSShapeGroup"></path>
            <path d="M765.076,227.661 L764.833,227.915 L765,228 L765.076,227.661" id="Fill-113" fill="#E1E5E5" sketch:type="MSShapeGroup"></path>
            <path d="M765,228.038 L855.893,237.833 L765,227.872 L765,228.038" id="Fill-114" fill="#E1E5E5" sketch:type="MSShapeGroup"></path>
            <path d="M764.833,227.915 L764.751,228 L765,228 L764.833,227.915" id="Fill-115" fill="#E1E5E5" sketch:type="MSShapeGroup"></path>
            <path d="M765,228 L764.751,228 L765,228.027 L765,228" id="Fill-116" fill="#E1E5E5" sketch:type="MSShapeGroup"></path>
            <path d="M855.99,237.758 L856,237.833 L856.015,237.779 L855.99,237.758" id="Fill-117" fill="#F2F2F2" sketch:type="MSShapeGroup"></path>
            <path d="M844.471,145.166 L844.37,145.289 L853.058,214.43 L865.815,202.28 L872.083,179.573 L869.688,175.486 L844.471,145.166" id="Fill-118" fill="#F2F2F2" sketch:type="MSShapeGroup"></path>
            <path d="M844.471,145.166 L844.334,145 L844.37,145.289 L844.471,145.166" id="Fill-119" fill="#F2F2F2" sketch:type="MSShapeGroup"></path>
            <path d="M900.333,109.667 L875.717,107.751 L923.333,137 L900.333,109.667" id="Fill-120" fill="#E5BB9B" sketch:type="MSShapeGroup"></path>
            <path d="M923.333,137 L875.717,107.751 L921,156.667 L923.333,137" id="Fill-121" fill="#F9CEAE" sketch:type="MSShapeGroup"></path>
            <path d="M861.834,124.125 L848.99,139.69 L921,156.667 L875.717,107.751 L863.27,122.413 L862.666,124.75 L861.834,124.125" id="Fill-122" fill="#FEE6D4" sketch:type="MSShapeGroup"></path>
            <path d="M861.834,124.125 L862.666,124.75 L863.27,122.413 L862.487,123.334 L861.834,124.125" id="Fill-123" fill="#FEE6D4" sketch:type="MSShapeGroup"></path>
            <path d="M848.666,139.613 L848.99,139.69 L861.834,124.125 L861.823,124.117 L848.666,139.613" id="Fill-124" fill="#FEE6D4" sketch:type="MSShapeGroup"></path>
            <path d="M861.834,124.125 L862.487,123.334 L861.823,124.117 L861.834,124.125" id="Fill-125" fill="#FEE6D4" sketch:type="MSShapeGroup"></path>
            <path d="M848.887,139.815 L890.963,178.327 L894.717,174.751 L896.434,174.884 L921,156.667 L848.99,139.69 L848.887,139.815" id="Fill-126" fill="#F9CEAE" sketch:type="MSShapeGroup"></path>
            <path d="M848.887,139.815 L848.99,139.69 L848.666,139.613 L848.887,139.815" id="Fill-127" fill="#F9CEAE" sketch:type="MSShapeGroup"></path>
            <path d="M869.688,175.486 L848.934,140.07 L846.707,142.456 L844.471,145.166 L869.688,175.486" id="Fill-128" fill="#F9AF7D" sketch:type="MSShapeGroup"></path>
            <path d="M846.707,142.456 L844.334,145 L844.471,145.166 L846.707,142.456" id="Fill-129" fill="#F9AF7D" sketch:type="MSShapeGroup"></path>
            <path d="M848.934,140.07 L849,140 L872.333,178.667 L872.083,179.573 L872.333,180 L872.409,179.995 L872.333,179 L886.583,179 L890.548,178.722 L890.963,178.327 L848.887,139.815 L848.827,139.887 L848.934,140.07" id="Fill-130" fill="#F4D2B9" sketch:type="MSShapeGroup"></path>
            <path d="M848.827,139.887 L848.887,139.815 L848.666,139.613 L848.827,139.887" id="Fill-131" fill="#F4D2B9" sketch:type="MSShapeGroup"></path>
            <path d="M872.083,179.573 L872.333,178.667 L869.688,175.486 L872.083,179.573" id="Fill-132" fill="#F4D2B9" sketch:type="MSShapeGroup"></path>
            <path d="M872.333,178.667 L849,140 L848.934,140.07 L869.688,175.486 L872.333,178.667" id="Fill-133" fill="#F4D2B9" sketch:type="MSShapeGroup"></path>
            <path d="M856.015,237.779 L856,237.833 L856.132,237.878 L856.015,237.779" id="Fill-134" fill="#F2F2F2" sketch:type="MSShapeGroup"></path>
            <path d="M873.555,194.908 L873.267,191.166 L872.333,180 L866.124,201.985 L873.555,194.908" id="Fill-135" fill="#F2F2F2" sketch:type="MSShapeGroup"></path>
            <path d="M942.333,204 L919.334,176.667 L896.434,174.884 L895.755,175.388 L942.333,204" id="Fill-136" fill="#E5BB9B" sketch:type="MSShapeGroup"></path>
            <path d="M895.755,175.388 L896.434,174.884 L894.717,174.751 L895.755,175.388" id="Fill-137" fill="#E5BB9B" sketch:type="MSShapeGroup"></path>
            <path d="M895.489,175.585 L940,223.667 L942.333,204 L895.755,175.388 L895.489,175.585" id="Fill-138" fill="#F9CEAE" sketch:type="MSShapeGroup"></path>
            <path d="M895.755,175.388 L894.717,174.751 L895.489,175.585 L895.755,175.388" id="Fill-139" fill="#F9CEAE" sketch:type="MSShapeGroup"></path>
            <path d="M861.116,219.302 L861.232,219.309 L866.124,201.985 L865.815,202.28 L861.116,219.302" id="Fill-140" fill="#FEE6D4" sketch:type="MSShapeGroup"></path>
            <path d="M891.333,178.667 L890.548,178.722 L890.256,179 L891.333,179 L873.604,195.195 L875.688,220.108 L940,223.667 L895.489,175.585 L891.333,178.667" id="Fill-141" fill="#FEE6D4" sketch:type="MSShapeGroup"></path>
            <path d="M853.619,218.887 L853.058,214.43 L848.666,218.613 L853.619,218.887" id="Fill-142" fill="#FEE6D4" sketch:type="MSShapeGroup"></path>
            <path d="M861.116,219.302 L865.815,202.28 L853.058,214.43 L853.619,218.887 L861.116,219.302" id="Fill-143" fill="#FEE6D4" sketch:type="MSShapeGroup"></path>
            <path d="M895.489,175.585 L894.717,174.751 L890.963,178.327 L891.333,178.667 L895.489,175.585" id="Fill-144" fill="#FEE6D4" sketch:type="MSShapeGroup"></path>
            <path d="M891.333,178.667 L890.963,178.327 L890.548,178.722 L891.333,178.667" id="Fill-145" fill="#FEE6D4" sketch:type="MSShapeGroup"></path>
            <path d="M873.555,194.908 L866.124,201.985 L861.232,219.309 L875.688,220.108 L873.604,195.195 L873.578,195.218 L873.555,194.908" id="Fill-146" fill="#FEE6D4" sketch:type="MSShapeGroup"></path>
            <path d="M877.793,245.273 L877.64,245.22 L892.475,258.845 L917.717,238.751 L919.44,238.885 L940,223.667 L875.688,220.108 L877.793,245.273" id="Fill-147" fill="#F9CEAE" sketch:type="MSShapeGroup"></path>
            <path d="M858.75,227.873 L858.8,227.919 L861.232,219.309 L861.116,219.302 L858.75,227.873" id="Fill-148" fill="#F9CEAE" sketch:type="MSShapeGroup"></path>
            <path d="M918.758,239.39 L919.44,238.885 L917.717,238.751 L918.758,239.39" id="Fill-149" fill="#F9CEAE" sketch:type="MSShapeGroup"></path>
            <path d="M918.758,239.39 L917.717,238.751 L918.491,239.587 L918.758,239.39" id="Fill-150" fill="#F9CEAE" sketch:type="MSShapeGroup"></path>
            <path d="M918.491,239.587 L917.717,238.751 L892.475,258.845 L918.491,239.587" id="Fill-151" fill="#F9CEAE" sketch:type="MSShapeGroup"></path>
            <path d="M853.619,218.887 L848.666,218.613 L854.226,223.719 L853.619,218.887" id="Fill-152" fill="#F9CEAE" sketch:type="MSShapeGroup"></path>
            <path d="M854.226,223.719 L858.75,227.873 L861.116,219.302 L853.619,218.887 L854.226,223.719" id="Fill-153" fill="#F9CEAE" sketch:type="MSShapeGroup"></path>
            <path d="M858.8,227.919 L877.64,245.22 L877.793,245.273 L875.688,220.108 L861.232,219.309 L858.8,227.919" id="Fill-154" fill="#F9CEAE" sketch:type="MSShapeGroup"></path>
            <path d="M876.202,254.889 L876.251,254.891 L865.833,241.19 L856.132,237.878 L876.202,254.889" id="Fill-155" fill="#F9AF7D" sketch:type="MSShapeGroup"></path>
            <path d="M856.015,237.779 L857.971,230.851 L857.94,230.808 L856.015,237.779" id="Fill-156" fill="#F9AF7D" sketch:type="MSShapeGroup"></path>
            <path d="M849,219.052 L849,231.833 L855.99,237.758 L854.558,226.362 L849,219.052" id="Fill-157" fill="#F9AF7D" sketch:type="MSShapeGroup"></path>
            <path d="M855.99,237.758 L856.015,237.779 L857.94,230.808 L854.558,226.362 L855.99,237.758" id="Fill-158" fill="#F9AF7D" sketch:type="MSShapeGroup"></path>
            <path d="M856.132,237.878 L865.833,241.19 L857.971,230.851 L856.015,237.779 L856.132,237.878" id="Fill-159" fill="#F9AF7D" sketch:type="MSShapeGroup"></path>
            <path d="M857.946,230.783 L857.979,230.826 L858.8,227.919 L858.75,227.873 L857.946,230.783" id="Fill-160" fill="#F4D2B9" sketch:type="MSShapeGroup"></path>
            <path d="M876.251,254.891 L878,255 L892.475,258.845 L877.64,245.22 L865.853,241.197 L876.251,254.891" id="Fill-161" fill="#F4D2B9" sketch:type="MSShapeGroup"></path>
            <path id="Fill-162" fill="#F4D2B9" sketch:type="MSShapeGroup"></path>
            <path d="M854.552,226.313 L854.226,223.719 L848.666,218.613 L849,219.052 L849,219 L854.552,226.313" id="Fill-163" fill="#F4D2B9" sketch:type="MSShapeGroup"></path>
            <path d="M854.552,226.313 L857.946,230.783 L858.75,227.873 L854.226,223.719 L854.552,226.313" id="Fill-164" fill="#F4D2B9" sketch:type="MSShapeGroup"></path>
            <path d="M857.979,230.826 L865.853,241.197 L877.64,245.22 L858.8,227.919 L857.979,230.826" id="Fill-165" fill="#F4D2B9" sketch:type="MSShapeGroup"></path>
            <path d="M876.251,254.891 L876.251,254.891 L865.853,241.197 L865.833,241.19 L876.251,254.891" id="Fill-166" fill="#F4D2B9" sketch:type="MSShapeGroup"></path>
            <path d="M857.94,230.808 L857.971,230.851 L857.979,230.826 L857.946,230.783 L857.94,230.808" id="Fill-167" fill="#F4D2B9" sketch:type="MSShapeGroup"></path>
            <path d="M854.552,226.313 L849,219 L849,219.052 L854.558,226.362 L854.552,226.313" id="Fill-168" fill="#F4D2B9" sketch:type="MSShapeGroup"></path>
            <path d="M854.558,226.362 L857.94,230.808 L857.946,230.783 L854.552,226.313 L854.558,226.362" id="Fill-169" fill="#F4D2B9" sketch:type="MSShapeGroup"></path>
            <path d="M865.833,241.19 L865.853,241.197 L857.979,230.826 L857.971,230.851 L865.833,241.19" id="Fill-170" fill="#F4D2B9" sketch:type="MSShapeGroup"></path>
            <path d="M872.409,179.995 L873.267,191.166 L873.578,194.885 L890.256,179 L886.583,179 L872.409,179.995" id="Fill-171" fill="#7A8891" sketch:type="MSShapeGroup"></path>
            <path d="M872.333,179 L872.409,179.995 L886.583,179 L872.333,179" id="Fill-172" fill="#7A8891" sketch:type="MSShapeGroup"></path>
            <path d="M873.578,194.885 L873.267,191.166 L873.555,194.908 L873.578,194.885" id="Fill-173" fill="#7A8891" sketch:type="MSShapeGroup"></path>
            <path d="M873.604,195.195 L891.333,179 L890.256,179 L873.578,194.885 L873.604,195.195" id="Fill-174" fill="#7A8891" sketch:type="MSShapeGroup"></path>
            <path d="M873.555,194.908 L873.578,195.218 L873.604,195.195 L873.578,194.885 L873.555,194.908" id="Fill-175" fill="#7A8891" sketch:type="MSShapeGroup"></path>
            <path d="M878,255.397 L878,270.367 L892.475,258.845 L878,255.397" id="Fill-176" fill="#7A8891" sketch:type="MSShapeGroup"></path>
            <path d="M885.127,264.695 L892.475,258.845 L885.127,264.695" id="Fill-177" fill="#7A8891" sketch:type="MSShapeGroup"></path>
            <path d="M892.475,258.845 L892.475,258.845 L878,255 L878,255.397 L892.475,258.845" id="Fill-178" fill="#7A8891" sketch:type="MSShapeGroup"></path>
            <path id="Fill-179" fill="#7A8891" sketch:type="MSShapeGroup"></path>
            <path d="M749,369.962 L749,370 L749,369.981 L749,397.767 L749.167,397.884 L796.833,364.5 L749,369.962" id="Fill-180" fill="#7A8891" sketch:type="MSShapeGroup"></path>
            <path d="M749.167,397.884 L749.282,397.964 L811.915,390 L797,364.5 L749.167,397.884" id="Fill-181" fill="#717E89" sketch:type="MSShapeGroup"></path>
            <path d="M811.915,390 L856,356.5 L797,364.5 L811.915,390" id="Fill-182" fill="#7A8891" sketch:type="MSShapeGroup"></path>
            <path d="M797,364.5 L856,356.5 L844.334,332 L797,364.5" id="Fill-183" fill="#606C78" sketch:type="MSShapeGroup"></path>
            <path d="M844.334,332 L856,356.5 L873.333,290.333 L844.334,332" id="Fill-184" fill="#6B767F" sketch:type="MSShapeGroup"></path>
            <path d="M890.871,314 L889.796,311.674 L873.333,290.333 L856,356.5 L890.333,314 L890.871,314" id="Fill-185" fill="#7A8891" sketch:type="MSShapeGroup"></path>
            <path d="M890.871,314 L891.058,314 L891.333,313.667 L889.796,311.674 L890.871,314" id="Fill-186" fill="#7A8891" sketch:type="MSShapeGroup"></path>
            <path d="M856,237.833 L765,248 L876.201,254.888 L856,237.833" id="Fill-187" fill="#F2F2F2" sketch:type="MSShapeGroup"></path>
            <path d="M878,255.397 L877.898,255.373 L872.666,274.613 L878,270.367 L878,255.397" id="Fill-188" fill="#ECEDED" sketch:type="MSShapeGroup"></path>
            <path d="M878,255.397 L878,255 L877.898,255.373 L878,255.397" id="Fill-189" fill="#ECEDED" sketch:type="MSShapeGroup"></path>
            <path d="M873.333,290.333 L872.666,274.613 L844.334,332 L873.333,290.333" id="Fill-190" fill="#E1E5E5" sketch:type="MSShapeGroup"></path>
            <path d="M749,369.962 L796.833,364.5 L844.083,332 L749,369.867 L749,369.962" id="Fill-191" fill="#E1E5E5" sketch:type="MSShapeGroup"></path>
            <path d="M749,370 L749.167,369.981 L749.074,369.97 L749,370" id="Fill-192" fill="#E1E5E5" sketch:type="MSShapeGroup"></path>
            <path d="M844.334,332 L872.666,274.613 L765,248 L844.334,332" id="Fill-193" fill="#ECEDED" sketch:type="MSShapeGroup"></path>
            <path d="M876.201,254.888 L876.333,255 L876.202,254.889 L876.201,254.888" id="Fill-194" fill="#E3E4E5" sketch:type="MSShapeGroup"></path>
            <path d="M876.333,255 L765,248 L872.666,274.613 L877.898,255.373 L876.333,255" id="Fill-195" fill="#E3E4E5" sketch:type="MSShapeGroup"></path>
            <path d="M876.202,254.889 L876.333,255 L876.251,254.891 L876.202,254.889" id="Fill-196" fill="#E3E4E5" sketch:type="MSShapeGroup"></path>
            <path d="M877.898,255.373 L878,255 L876.251,254.891 L876.333,255 L877.898,255.373" id="Fill-197" fill="#E3E4E5" sketch:type="MSShapeGroup"></path>
            <path d="M876.333,255 L876.251,254.891 L876.333,255" id="Fill-198" fill="#E3E4E5" sketch:type="MSShapeGroup"></path>
            <path d="M765,248 L876.333,255 L876.201,254.888 L765,248" id="Fill-199" fill="#E3E4E5" sketch:type="MSShapeGroup"></path>
            <path d="M749.005,369.962 L749,370 L749.074,369.97 L749.005,369.962" id="Fill-200" fill="#F2F2F2" sketch:type="MSShapeGroup"></path>
            <path d="M749.333,369.867 L844.334,332 L765,248 L749.326,367.514 L749.333,369.867" id="Fill-201" fill="#F2F2F2" sketch:type="MSShapeGroup"></path>
            <path d="M749.167,313.333 L749.326,367.514 L765,248 L749.333,256.667 L749.167,313.333" id="Fill-202" fill="#ECEDED" sketch:type="MSShapeGroup"></path>
            <path d="M749,369.962 L749,370 L749.005,369.962 L749,369.962" id="Fill-203" fill="#ECEDED" sketch:type="MSShapeGroup"></path>
            <path d="M701.399,364.545 L749,397.767 L749,370 L701.399,364.545" id="Fill-204" fill="#7A8891" sketch:type="MSShapeGroup"></path>
            <path d="M686.417,390 L748.926,397.948 L701.237,364.665 L686.417,390" id="Fill-205" fill="#717E89" sketch:type="MSShapeGroup"></path>
            <path d="M701.312,364.536 L701.399,364.545 L701.333,364.5 L701.312,364.536" id="Fill-206" fill="#717E89" sketch:type="MSShapeGroup"></path>
            <path d="M749.167,397.979 L749.333,398 L749.282,397.964 L749.167,397.979" id="Fill-207" fill="#717E89" sketch:type="MSShapeGroup"></path>
            <path d="M749,397.958 L749.051,397.964 L749.167,397.884 L749,397.767 L749,397.958" id="Fill-208" fill="#717E89" sketch:type="MSShapeGroup"></path>
            <path d="M749.167,397.884 L749.051,397.964 L749.167,397.979 L749.282,397.964 L749.167,397.884" id="Fill-209" fill="#717E89" sketch:type="MSShapeGroup"></path>
            <path d="M749,397.767 L701.399,364.545 L701.312,364.536 L701.237,364.665 L748.926,397.948 L749,397.958 L749,397.767" id="Fill-210" fill="#717E89" sketch:type="MSShapeGroup"></path>
            <path d="M701,364.5 L701.312,364.536 L701.333,364.5 L642.333,356.5 L686.417,390 L701.237,364.665 L701,364.5" id="Fill-211" fill="#7A8891" sketch:type="MSShapeGroup"></path>
            <path d="M701.237,364.665 L701.312,364.536 L701,364.5 L701.237,364.665" id="Fill-212" fill="#7A8891" sketch:type="MSShapeGroup"></path>
            <path d="M654,332 L642.333,356.5 L701.333,364.5 L654,332" id="Fill-213" fill="#606C78" sketch:type="MSShapeGroup"></path>
            <path d="M625,290.333 L642.333,356.5 L654,332 L625,290.333" id="Fill-214" fill="#6B767F" sketch:type="MSShapeGroup"></path>
            <path d="M607,313.667 L642.333,356.5 L625,290.333 L607,313.667" id="Fill-215" fill="#7A8891" sketch:type="MSShapeGroup"></path>
            <path d="M625,290.333 L654,332 L625.666,274.613 L625,290.333" id="Fill-216" fill="#E1E5E5" sketch:type="MSShapeGroup"></path>
            <path d="M749.001,369.867 L654,332 L701.333,364.5 L749,369.962 L749.001,369.867" id="Fill-217" fill="#E1E5E5" sketch:type="MSShapeGroup"></path>
            <path d="M749.167,369.981 L749.333,370 L749.259,369.97 L749.167,369.981" id="Fill-218" fill="#E1E5E5" sketch:type="MSShapeGroup"></path>
            <path d="M749.167,369.934 L749.074,369.97 L749.167,369.981 L749.259,369.97 L749.167,369.934" id="Fill-219" fill="#E1E5E5" sketch:type="MSShapeGroup"></path>
            <path d="M749.005,369.962 L749.074,369.97 L749.167,369.934 L749.017,369.874 L749.005,369.962" id="Fill-220" fill="#E1E5E5" sketch:type="MSShapeGroup"></path>
            <path d="M749.017,369.874 L749.001,369.867 L749,369.962 L749.005,369.962 L749.017,369.874" id="Fill-221" fill="#E1E5E5" sketch:type="MSShapeGroup"></path>
            <path d="M732.012,248.327 L625.666,274.613 L654,332 L732.708,248.662 L732.012,248.327" id="Fill-222" fill="#ECEDED" sketch:type="MSShapeGroup"></path>
            <path d="M732.012,248.327 L732.708,248.662 L733.334,248 L732.012,248.327" id="Fill-223" fill="#ECEDED" sketch:type="MSShapeGroup"></path>
            <path d="M749.007,367.514 L733.468,249.028 L732.708,248.662 L654,332 L749.001,369.867 L749.007,367.514" id="Fill-224" fill="#F2F2F2" sketch:type="MSShapeGroup"></path>
            <path d="M732.708,248.662 L733.468,249.028 L733.334,248 L732.708,248.662" id="Fill-225" fill="#F2F2F2" sketch:type="MSShapeGroup"></path>
            <path d="M749.259,369.97 L749.333,370 L749.328,369.962 L749.259,369.97" id="Fill-226" fill="#F2F2F2" sketch:type="MSShapeGroup"></path>
            <path d="M749.259,369.97 L749.328,369.962 L749.317,369.874 L749.167,369.934 L749.259,369.97" id="Fill-227" fill="#F2F2F2" sketch:type="MSShapeGroup"></path>
            <path d="M749.017,369.874 L749.167,369.934 L749.317,369.874 L749.167,368.729 L749.017,369.874" id="Fill-228" fill="#F2F2F2" sketch:type="MSShapeGroup"></path>
            <path d="M749.167,368.729 L749.007,367.514 L749.001,369.867 L749.017,369.874 L749.167,368.729" id="Fill-229" fill="#F2F2F2" sketch:type="MSShapeGroup"></path>
            <path d="M749,256.667 L746.762,255.428 L733.468,249.028 L749.007,367.514 L749.167,313.333 L749,256.667" id="Fill-230" fill="#E3E4E5" sketch:type="MSShapeGroup"></path>
            <path d="M733.334,248 L733.468,249.028 L746.762,255.428 L733.334,248" id="Fill-231" fill="#E3E4E5" sketch:type="MSShapeGroup"></path>
            <path d="M749.333,370 L749.333,369.962 L749.328,369.962 L749.333,370" id="Fill-232" fill="#E3E4E5" sketch:type="MSShapeGroup"></path>
            <path d="M749.317,369.874 L749.328,369.962 L749.333,369.962 L749.333,369.867 L749.317,369.874" id="Fill-233" fill="#E3E4E5" sketch:type="MSShapeGroup"></path>
            <path d="M749.317,369.874 L749.333,369.867 L749.326,367.514 L749.167,368.729 L749.317,369.874" id="Fill-234" fill="#E3E4E5" sketch:type="MSShapeGroup"></path>
            <path d="M749.326,367.514 L749.167,313.333 L749.007,367.514 L749.167,368.729 L749.326,367.514" id="Fill-235" fill="#E3E4E5" sketch:type="MSShapeGroup"></path>
            <path d="M594.333,263.333 L607,313.667 L625,290.333 L594.333,263.333" id="Fill-236" fill="#606C78" sketch:type="MSShapeGroup"></path>
            <path d="M609.667,240.333 L594.501,263.065 L594.333,263.333 L625,290.333 L609.667,240.333" id="Fill-237" fill="#78828B" sketch:type="MSShapeGroup"></path>
            <path d="M610.129,240.284 L609.667,238.729 L609.465,239.052 L609.667,240.333 L610.129,240.284" id="Fill-238" fill="#78828B" sketch:type="MSShapeGroup"></path>
            <path d="M654.667,144.333 L638,122.333 L621.667,189.375 L654.667,144.333" id="Fill-239" fill="#606C78" sketch:type="MSShapeGroup"></path>
            <path d="M638,122.333 L605.266,161.349 L621.667,189.375 L638,122.333" id="Fill-240" fill="#606C78" sketch:type="MSShapeGroup"></path>
            <path d="M731.433,248.048 L731.333,248 L731.625,248 L731,227.375 L625.334,274.613 L731.433,248.048" id="Fill-241" fill="#E1E5E5" sketch:type="MSShapeGroup"></path>
            <path d="M731.333,248 L731.433,248.048 L731.625,248 L731.333,248" id="Fill-242" fill="#E1E5E5" sketch:type="MSShapeGroup"></path>
            <path d="M748,111 L702,116 L748,219 L748,111" id="Fill-243" fill="#E1E5E5" sketch:type="MSShapeGroup"></path>
            <path d="M748,219 L702,116 L731,227.375 L748,219" id="Fill-244" fill="#F4F4F4" sketch:type="MSShapeGroup"></path>
            <path d="M731,227.375 L702,116 L654.667,144.333 L731,227.375" id="Fill-245" fill="#E1E5E5" sketch:type="MSShapeGroup"></path>
            <path d="M621.667,189.375 L605,161.667 L605.266,161.349 L594.333,142.667 L609.667,238.729 L621.667,189.375" id="Fill-246" fill="#F9CEAE" sketch:type="MSShapeGroup"></path>
            <path d="M621.667,189.375 L605.266,161.349 L605,161.667 L621.667,189.375" id="Fill-247" fill="#F9CEAE" sketch:type="MSShapeGroup"></path>
            <path d="M609.465,239.052 L594.333,142.667 L556,195.218 L609.011,239.782 L609.465,239.052" id="Fill-248" fill="#FEE6D4" sketch:type="MSShapeGroup"></path>
            <path d="M609.465,239.052 L609.011,239.782 L609.667,240.333 L609.465,239.052" id="Fill-249" fill="#FEE6D4" sketch:type="MSShapeGroup"></path>
            <path d="M609.011,239.782 L556,195.218 L510,282.333 L608.31,240.905 L609.011,239.782" id="Fill-250" fill="#F9CEAE" sketch:type="MSShapeGroup"></path>
            <path d="M609.011,239.782 L608.31,240.905 L609.667,240.333 L609.011,239.782" id="Fill-251" fill="#F9CEAE" sketch:type="MSShapeGroup"></path>
            <path d="M608.31,240.905 L510,282.333 L537.667,348.25 L594.501,263.065 L608.31,240.905" id="Fill-252" fill="#EFC7A9" sketch:type="MSShapeGroup"></path>
            <path d="M608.31,240.905 L594.501,263.065 L609.667,240.333 L608.31,240.905" id="Fill-253" fill="#EFC7A9" sketch:type="MSShapeGroup"></path>
            <path d="M594.333,263.333 L537.667,348.25 L607,313.667 L594.333,263.333" id="Fill-254" fill="#FEE6D4" sketch:type="MSShapeGroup"></path>
            <path d="M537.667,348.25 L572.333,404.5 L607,313.667 L537.667,348.25" id="Fill-255" fill="#F8CDAD" sketch:type="MSShapeGroup"></path>
            <path d="M607,313.667 L572.333,404.5 L642.333,356.5 L607,313.667" id="Fill-256" fill="#F2D3BC" sketch:type="MSShapeGroup"></path>
            <path d="M611.029,243.315 L625,290.333 L625.334,274.613 L611.029,243.315" id="Fill-257" fill="#E3E4E5" sketch:type="MSShapeGroup"></path>
            <path d="M609.667,240.333 L625,290.333 L611.029,243.315 L609.667,240.333" id="Fill-258" fill="#E3E4E5" sketch:type="MSShapeGroup"></path>
            <path d="M611.029,243.315 L625.334,274.613 L731,227.375 L610.129,240.284 L611.029,243.315" id="Fill-259" fill="#F4F4F4" sketch:type="MSShapeGroup"></path>
            <path d="M610.129,240.284 L609.667,240.333 L611.029,243.315 L610.129,240.284" id="Fill-260" fill="#F4F4F4" sketch:type="MSShapeGroup"></path>
            <path d="M621.667,189.375 L609.667,238.729 L731,227.375 L621.667,189.375" id="Fill-261" fill="#ECEDED" sketch:type="MSShapeGroup"></path>
            <path d="M654.667,144.333 L621.667,189.375 L731,227.375 L654.667,144.333" id="Fill-262" fill="#F4F4F4" sketch:type="MSShapeGroup"></path>
            <path d="M962.666,287.833 L910,314 L910,351 L962.666,287.833" id="Fill-263" fill="#E5BB9B" sketch:type="MSShapeGroup"></path>
            <path d="M890.939,314.145 L890.617,314.534 L910,351 L910,314 L905.583,314 L891.333,315 L890.939,314.145" id="Fill-264" fill="#EBB48A" sketch:type="MSShapeGroup"></path>
            <path d="M890.939,314.145 L891.333,315 L905.583,314 L891.058,314 L890.939,314.145" id="Fill-265" fill="#EBB48A" sketch:type="MSShapeGroup"></path>
            <path d="M890.333,314 L890.617,314.534 L890.939,314.145 L890.871,314 L890.333,314" id="Fill-266" fill="#EBB48A" sketch:type="MSShapeGroup"></path>
            <path d="M890.939,314.145 L891.058,314 L890.871,314 L890.939,314.145" id="Fill-267" fill="#EBB48A" sketch:type="MSShapeGroup"></path>
            <path d="M572.333,404.5 L655.5,442 L642.333,356.5 L572.333,404.5" id="Fill-268" fill="#F9CEAE" sketch:type="MSShapeGroup"></path>
            <path d="M642.333,356.5 L655.5,442 L686.417,390 L642.333,356.5" id="Fill-269" fill="#F2DBC9" sketch:type="MSShapeGroup"></path>
            <path d="M749.167,397.979 L749,398 L748.926,397.948 L686.417,390 L655.5,442 L749.333,398 L749.167,397.979" id="Fill-270" fill="#EEC7A8" sketch:type="MSShapeGroup"></path>
            <path d="M749,397.958 L749,398 L749.051,397.964 L749,397.958" id="Fill-271" fill="#EEC7A8" sketch:type="MSShapeGroup"></path>
            <path d="M749,398 L749.167,397.979 L749.051,397.964 L749,398" id="Fill-272" fill="#EEC7A8" sketch:type="MSShapeGroup"></path>
            <path d="M748.926,397.948 L749,398 L749,397.958 L748.926,397.948" id="Fill-273" fill="#EEC7A8" sketch:type="MSShapeGroup"></path>
            <path d="M731.204,459.82 L749.333,398 L655.5,442 L730.411,460.506 L730.418,460.5 L731.204,459.82" id="Fill-274" fill="#F9CEAE" sketch:type="MSShapeGroup"></path>
            <path d="M811.915,390 L749.333,398 L733.187,458.104 L811.915,390" id="Fill-275" fill="#F2DBC9" sketch:type="MSShapeGroup"></path>
            <path d="M749.333,398 L731.204,459.82 L733.187,458.104 L749.333,398" id="Fill-276" fill="#F2DBC9" sketch:type="MSShapeGroup"></path>
            <path d="M811.915,390 L732.641,460.522 L780.5,461 L780.826,460.263 L780.5,460.5 L811.915,390" id="Fill-277" fill="#EEC7A8" sketch:type="MSShapeGroup"></path>
            <path d="M730.418,460.5 L731.003,460.506 L731.204,459.82 L730.418,460.5" id="Fill-278" fill="#EEC7A8" sketch:type="MSShapeGroup"></path>
            <path d="M732.538,461 L732.641,461 L811.915,390.239 L733.187,458.463 L732.538,461" id="Fill-279" fill="#EEC7A8" sketch:type="MSShapeGroup"></path>
            <path d="M733.187,458.104 L731.204,459.82 L731.003,460.506 L732.538,460.521 L733.187,458.104" id="Fill-280" fill="#EEC7A8" sketch:type="MSShapeGroup"></path>
            <path d="M856,356.5 L910,351 L890.617,314.534 L856,356.5" id="Fill-281" fill="#F9CEAE" sketch:type="MSShapeGroup"></path>
            <path d="M856,356.5 L890.617,314.534 L890.333,314 L856,356.5" id="Fill-282" fill="#F9CEAE" sketch:type="MSShapeGroup"></path>
            <path d="M861,402 L910,351 L856,356.5 L861,402" id="Fill-283" fill="#E5B897" sketch:type="MSShapeGroup"></path>
            <path d="M811.915,390 L861,402 L856,356.5 L811.915,390" id="Fill-284" fill="#F4D2B9" sketch:type="MSShapeGroup"></path>
            <path d="M780.826,460.263 L861,402 L811.915,390 L780.826,460.263" id="Fill-285" fill="#F9CEAE" sketch:type="MSShapeGroup"></path>
            <path d="M780.5,460.5 L780.826,460.263 L811.915,390 L780.5,460.5" id="Fill-286" fill="#F9CEAE" sketch:type="MSShapeGroup"></path>
            <path d="M655,442 L572.084,404.5 L566.323,458.419 L573.202,461.265 L655,442" id="Fill-287" fill="#F9CEAE" sketch:type="MSShapeGroup"></path>
            <path d="M697.82,495.946 L730.409,460.509 L655,442 L691.334,502.5 L697.82,495.946" id="Fill-288" fill="#F2DBC9" sketch:type="MSShapeGroup"></path>
            <path d="M691.334,502.5 L655,442 L633,486 L691.334,502.5" id="Fill-289" fill="#EEC7A8" sketch:type="MSShapeGroup"></path>
            <path d="M633,486 L655,442 L573.257,461.288 L633,486" id="Fill-290" fill="#F2DBC9" sketch:type="MSShapeGroup"></path>
            <path d="M732.506,460.643 L732.41,461 L697.82,495.946 L691.334,503 L780.5,461 L732.641,460.522 L732.506,460.643" id="Fill-291" fill="#F9CEAE" sketch:type="MSShapeGroup"></path>
            <path d="M732.17,460.941 L732.41,461 L732.17,460.941" id="Fill-292" fill="#F9CEAE" sketch:type="MSShapeGroup"></path>
            <path d="M730.962,460.643 L730.411,460.506 L730.409,460.509 L730.962,460.644 L730.962,460.643" id="Fill-293" fill="#F9CEAE" sketch:type="MSShapeGroup"></path>
            <path d="M731.003,460.506 L730.418,460.5 L730.411,460.506 L730.962,460.643 L731.003,460.506" id="Fill-294" fill="#F9CEAE" sketch:type="MSShapeGroup"></path>
            <path d="M732.17,460.941 L732.41,461 L732.506,460.643 L732.17,460.941" id="Fill-295" fill="#F9CEAE" sketch:type="MSShapeGroup"></path>
            <path d="M732.506,460.643 L732.641,460.522 L732.538,460.521 L732.506,460.643" id="Fill-296" fill="#F9CEAE" sketch:type="MSShapeGroup"></path>
            <path d="M730.962,460.643 L730.962,460.644 L732.17,460.941 L730.962,460.643" id="Fill-297" fill="#F9CEAE" sketch:type="MSShapeGroup"></path>
            <path d="M732.506,460.643 L732.538,460.521 L731.003,460.506 L730.962,460.643 L732.17,460.941 L732.506,460.643" id="Fill-298" fill="#F9CEAE" sketch:type="MSShapeGroup"></path>
            <path d="M732.41,461 L732.17,460.941 L730.418,462.5 L730.962,460.644 L730.409,460.509 L697.82,495.946 L732.41,461" id="Fill-299" fill="#F9CEAE" sketch:type="MSShapeGroup"></path>
            <path d="M730.418,462.5 L732.17,460.941 L730.962,460.644 L730.418,462.5" id="Fill-300" fill="#F9CEAE" sketch:type="MSShapeGroup"></path>
            <path d="M743.505,518.805 L780.5,461 L691.334,503 L743.505,518.805" id="Fill-301" fill="#EFC7A9" sketch:type="MSShapeGroup"></path>
            <path d="M633,486.049 L566,463.024 L573.257,461.3 L573.202,461.271 L565.833,463.003 L566.323,458.421 L554.834,453.716 L524.247,538 L526.931,538 L633,486.049" id="Fill-302" fill="#BAD3E5" sketch:type="MSShapeGroup"></path>
            <path d="M526.931,538 L524.247,538 L523.666,539.597 L526.931,538" id="Fill-303" fill="#BAD3E5" sketch:type="MSShapeGroup"></path>
            <path d="M573.202,461.265 L566.323,458.419 L565.833,463 L573.202,461.265" id="Fill-304" fill="#BAD3E5" sketch:type="MSShapeGroup"></path>
            <path d="M566,463 L633,486 L573.257,461.288 L566,463" id="Fill-305" fill="#BAD3E5" sketch:type="MSShapeGroup"></path>
            <path d="M633,486.097 L526.931,538 L609.095,538 L633,486.097" id="Fill-306" fill="#D1E7F4" sketch:type="MSShapeGroup"></path>
            <path d="M649.665,538 L633,486.097 L609.095,538 L649.665,538" id="Fill-307" fill="#D7EEFA" sketch:type="MSShapeGroup"></path>
            <path d="M680.215,538 L691.334,503.048 L633,486.073 L649.665,538 L680.215,538" id="Fill-308" fill="#F6FCFF" sketch:type="MSShapeGroup"></path>
            <path d="M691.334,503.048 L680.215,538 L737.221,538 L759,523.549 L743.505,518.83 L740.5,523.536 L691.334,503.048" id="Fill-309" fill="#E2F0F8" sketch:type="MSShapeGroup"></path>
            <path d="M740.5,523.5 L743.505,518.805 L691.334,503 L740.5,523.5" id="Fill-310" fill="#E2F0F8" sketch:type="MSShapeGroup"></path>
            <path d="M753.985,538 L759,523.597 L737.221,538 L753.985,538" id="Fill-311" fill="#D6E7ED" sketch:type="MSShapeGroup"></path>
            <path d="M372.051,277.441 L342.408,249.69 L349.266,286.457 L372.051,277.441" id="Fill-312" fill="#FF8C1F" sketch:type="MSShapeGroup"></path>
            <path d="M369.163,245.331 L342.408,249.69 L372.051,277.441 L369.163,245.331" id="Fill-313" fill="#FB9235" sketch:type="MSShapeGroup"></path>
            <path d="M365.595,214.406 L342.408,249.69 L369.163,245.331 L365.595,214.406" id="Fill-314" fill="#FF8C1F" sketch:type="MSShapeGroup"></path>
            <path d="M406.262,219.962 L365.595,214.406 L369.163,245.331 L406.262,219.962" id="Fill-315" fill="#EC7711" sketch:type="MSShapeGroup"></path>
            <path d="M401.325,199.238 L365.595,214.406 L406.262,219.962 L401.325,199.238" id="Fill-316" fill="#EF7B1B" sketch:type="MSShapeGroup"></path>
            <path d="M433.549,232.881 L401.325,199.238 L406.262,219.962 L433.549,232.881" id="Fill-317" fill="#EC7711" sketch:type="MSShapeGroup"></path>
            <path d="M437.967,204.973 L401.325,199.238 L433.549,232.881 L437.967,204.973" id="Fill-318" fill="#EC6F09" sketch:type="MSShapeGroup"></path>
            <path d="M458.419,226.722 L437.967,204.973 L433.549,232.881 L458.419,226.722" id="Fill-319" fill="#DD6B0E" sketch:type="MSShapeGroup"></path>
            <path d="M438.586,261.013 L458.419,226.722 L433.549,232.881 L438.586,261.013" id="Fill-320" fill="#BF5C10" sketch:type="MSShapeGroup"></path>
            <path d="M462.773,253.405 L458.419,226.722 L438.586,261.013 L462.773,253.405" id="Fill-321" fill="#C6621C" sketch:type="MSShapeGroup"></path>
            <path d="M452.823,288.236 L462.773,253.405 L438.586,261.013 L452.823,288.236" id="Fill-322" fill="#CB6725" sketch:type="MSShapeGroup"></path>
            <path d="M428.002,293.474 L452.823,288.236 L438.586,261.013 L428.002,293.474" id="Fill-323" fill="#D8641F" sketch:type="MSShapeGroup"></path>
            <path d="M450,315.647 L450,315.646 L450,315.649 L450.025,315.735 L452.853,288.236 L428.078,293.474 L450,315.647" id="Fill-324" fill="#C45313" sketch:type="MSShapeGroup"></path>
            <path d="M449.897,315.693 L449.902,315.691 L449.899,315.697 L449.922,315.749 L449.964,315.735 L449.879,315.649 L449.897,315.693" id="Fill-325" fill="#B54912" sketch:type="MSShapeGroup"></path>
            <path d="M449.877,315.647 L428.002,293.474 L427.737,322.696 L449.851,315.707 L449.877,315.647" id="Fill-326" fill="#B54912" sketch:type="MSShapeGroup"></path>
            <path d="M437.606,344.299 L437.61,344.297 L437.608,344.294 L437.606,344.299" id="Fill-327" fill="#BF5929" sketch:type="MSShapeGroup"></path>
            <path d="M437.664,344.268 L457.569,333.518 L449.922,315.749 L449.871,315.765 L437.664,344.268" id="Fill-328" fill="#BF5929" sketch:type="MSShapeGroup"></path>
            <path d="M449.877,315.646 L449.877,315.647 L449.879,315.649 L449.877,315.646" id="Fill-329" fill="#BF5929" sketch:type="MSShapeGroup"></path>
            <path d="M449.871,315.765 L449.922,315.749 L449.899,315.697 L449.871,315.765" id="Fill-330" fill="#BF5929" sketch:type="MSShapeGroup"></path>
            <path d="M449.897,315.693 L449.879,315.649 L449.877,315.647 L449.851,315.707 L449.897,315.693" id="Fill-331" fill="#BF5929" sketch:type="MSShapeGroup"></path>
            <path d="M427.737,322.696 L437.608,344.294 L449.819,315.781 L427.737,322.696" id="Fill-332" fill="#A84D24" sketch:type="MSShapeGroup"></path>
            <path d="M437.631,344.344 L437.664,344.268 L437.61,344.297 L437.631,344.344" id="Fill-333" fill="#A84D24" sketch:type="MSShapeGroup"></path>
            <path d="M449.902,315.691 L449.897,315.693 L449.899,315.697 L449.902,315.691" id="Fill-334" fill="#A84D24" sketch:type="MSShapeGroup"></path>
            <path d="M449.851,315.707 L427.737,322.696 L449.819,315.781 L449.851,315.707" id="Fill-335" fill="#A84D24" sketch:type="MSShapeGroup"></path>
            <path d="M450.015,315.781 L438,344.294 L438,344.297 L437.859,344.268 L450.067,315.765 L450.015,315.781" id="Fill-336" fill="#A84D24" sketch:type="MSShapeGroup"></path>
            <path d="M449.819,315.781 L449.871,315.765 L449.899,315.697 L449.897,315.693 L449.851,315.707 L449.819,315.781" id="Fill-337" fill="#A84D24" sketch:type="MSShapeGroup"></path>
            <path d="M446.423,363.107 L459.155,386.682 L467.898,357.421 L470.01,350.256 L446.423,363.107" id="Fill-338" fill="#E95019" sketch:type="MSShapeGroup"></path>
            <path d="M459.155,386.682 L459.088,386.904 L482.814,374.091 L470.005,350.373 L467.898,357.421 L459.233,386.826 L459.155,386.682" id="Fill-339" fill="#DB4D1D" sketch:type="MSShapeGroup"></path>
            <path d="M459.233,386.826 L467.898,357.421 L459.155,386.682 L459.233,386.826" id="Fill-340" fill="#DB4D1D" sketch:type="MSShapeGroup"></path>
            <path d="M1004.545,241.37 L1017.166,247.88 L1017.982,224.363 L1004.545,241.37" id="Fill-341" fill="#FFBD38" sketch:type="MSShapeGroup"></path>
            <path d="M1017.166,247.88 L1030.082,234.382 L1017.982,224.363 L1017.166,247.88" id="Fill-342" fill="#FBBF4D" sketch:type="MSShapeGroup"></path>
            <path d="M1030.082,234.382 L1042.223,221.038 L1017.982,224.363 L1030.082,234.382" id="Fill-343" fill="#FFBD38" sketch:type="MSShapeGroup"></path>
            <path d="M1055.296,240.908 L1042.223,221.038 L1030.082,234.382 L1055.296,240.908" id="Fill-344" fill="#ECA727" sketch:type="MSShapeGroup"></path>
            <path d="M1062.462,230.855 L1042.223,221.038 L1055.296,240.908 L1062.462,230.855" id="Fill-345" fill="#EFAC32" sketch:type="MSShapeGroup"></path>
            <path d="M1060.057,257.744 L1062.462,230.855 L1055.296,240.908 L1060.057,257.744" id="Fill-346" fill="#ECA727" sketch:type="MSShapeGroup"></path>
            <path d="M1073.924,249.036 L1062.462,230.855 L1060.057,257.744 L1073.924,249.036" id="Fill-347" fill="#ECA21F" sketch:type="MSShapeGroup"></path>
            <path d="M1072.224,266.254 L1073.924,249.036 L1060.057,257.744 L1072.224,266.254" id="Fill-348" fill="#DD9A23" sketch:type="MSShapeGroup"></path>
            <path d="M1049.695,270.665 L1072.224,266.254 L1060.057,257.744 L1049.695,270.665" id="Fill-349" fill="#BF8522" sketch:type="MSShapeGroup"></path>
            <path d="M1062.234,278.324 L1072.224,266.254 L1049.695,270.665 L1062.234,278.324" id="Fill-350" fill="#C68C2F" sketch:type="MSShapeGroup"></path>
            <path d="M1043.237,287.256 L1062.234,278.324 L1049.695,270.665 L1043.237,287.256" id="Fill-351" fill="#CB9138" sketch:type="MSShapeGroup"></path>
            <path d="M1031.49,278.416 L1043.237,287.256 L1049.695,270.665 L1031.49,278.416" id="Fill-352" fill="#D89433" sketch:type="MSShapeGroup"></path>
            <path d="M1030.074,296.416 L1030,296.416 L1030,296.418 L1030.069,296.488 L1043.2,287.256 L1031.435,278.416 L1030.074,296.416" id="Fill-353" fill="#C48125" sketch:type="MSShapeGroup"></path>
            <path d="M1030.136,296.443 L1030.139,296.444 L1030.135,296.445 L1030.121,296.475 L1030.143,296.488 L1030.148,296.418 L1030.136,296.443" id="Fill-354" fill="#B57423" sketch:type="MSShapeGroup"></path>
            <path d="M1030.148,296.416 L1031.49,278.416 L1018.633,289.438 L1030.112,296.428 L1030.148,296.416" id="Fill-355" fill="#B57423" sketch:type="MSShapeGroup"></path>
            <path d="M1012.999,301.993 L1025.278,306.585 L1030.121,296.475 L1030.095,296.458 L1012.999,301.993" id="Fill-356" fill="#BF823B" sketch:type="MSShapeGroup"></path>
            <path d="M1012.964,301.98 L1012.966,301.98 L1012.967,301.979 L1012.964,301.98" id="Fill-357" fill="#BF823B" sketch:type="MSShapeGroup"></path>
            <path d="M1030.149,296.416 L1030.148,296.418 L1030.149,296.416" id="Fill-358" fill="#BF823B" sketch:type="MSShapeGroup"></path>
            <path d="M1030.136,296.443 L1030.148,296.418 L1030.148,296.416 L1030.112,296.428 L1030.136,296.443" id="Fill-359" fill="#BF823B" sketch:type="MSShapeGroup"></path>
            <path d="M1030.095,296.458 L1030.121,296.475 L1030.135,296.445 L1030.095,296.458" id="Fill-360" fill="#BF823B" sketch:type="MSShapeGroup"></path>
            <path d="M1012.954,302.008 L1012.999,301.993 L1012.966,301.98 L1012.954,302.008" id="Fill-361" fill="#A87134" sketch:type="MSShapeGroup"></path>
            <path d="M1018.633,289.438 L1012.967,301.979 L1030.068,296.442 L1018.633,289.438" id="Fill-362" fill="#A87134" sketch:type="MSShapeGroup"></path>
            <path d="M1030.139,296.444 L1030.136,296.443 L1030.135,296.445 L1030.139,296.444" id="Fill-363" fill="#A87134" sketch:type="MSShapeGroup"></path>
            <path d="M1030.112,296.428 L1018.633,289.438 L1030.068,296.442 L1030.112,296.428" id="Fill-364" fill="#A87134" sketch:type="MSShapeGroup"></path>
            <path d="M1030.085,296.442 L1013,301.979 L1013,301.98 L1013.017,301.993 L1030.112,296.458 L1030.085,296.442" id="Fill-365" fill="#A87134" sketch:type="MSShapeGroup"></path>
            <path d="M1030.068,296.442 L1030.095,296.458 L1030.135,296.445 L1030.136,296.443 L1030.112,296.428 L1030.068,296.442" id="Fill-366" fill="#A87134" sketch:type="MSShapeGroup"></path>
            <path d="M1008.113,312.997 L1002.674,327.54 L1018.78,320.205 L1022.713,318.396 L1008.113,312.997" id="Fill-367" fill="#E98529" sketch:type="MSShapeGroup"></path>
            <path d="M1002.674,327.54 L1002.552,327.596 L1017.188,333.07 L1022.66,318.438 L1018.78,320.205 L1002.641,327.629 L1002.674,327.54" id="Fill-368" fill="#DB8132" sketch:type="MSShapeGroup"></path>
            <path d="M1002.641,327.629 L1018.78,320.205 L1002.674,327.54 L1002.641,327.629" id="Fill-369" fill="#DB8132" sketch:type="MSShapeGroup"></path>
            <path d="M1251.721,477.539 L1258.292,474.939 L1249.746,466.937 L1251.721,477.539" id="Fill-370" fill="#A6FF64" sketch:type="MSShapeGroup"></path>
            <path d="M1258.292,474.939 L1257.46,465.681 L1249.746,466.937 L1258.292,474.939" id="Fill-371" fill="#B5FB78" sketch:type="MSShapeGroup"></path>
            <path d="M1257.46,465.681 L1256.432,456.764 L1249.746,466.937 L1257.46,465.681" id="Fill-372" fill="#A6FF64" sketch:type="MSShapeGroup"></path>
            <path d="M1268.158,458.368 L1256.432,456.764 L1257.46,465.681 L1268.158,458.368" id="Fill-373" fill="#99EC50" sketch:type="MSShapeGroup"></path>
            <path d="M1266.736,452.392 L1256.432,456.764 L1268.158,458.368 L1266.736,452.392" id="Fill-374" fill="#A4EF5B" sketch:type="MSShapeGroup"></path>
            <path d="M1276.026,462.094 L1266.736,452.392 L1268.158,458.368 L1276.026,462.094" id="Fill-375" fill="#99EC50" sketch:type="MSShapeGroup"></path>
            <path d="M1277.301,454.046 L1266.736,452.392 L1276.026,462.094 L1277.301,454.046" id="Fill-376" fill="#9BEC49" sketch:type="MSShapeGroup"></path>
            <path d="M1283.197,460.318 L1277.301,454.046 L1276.026,462.094 L1283.197,460.318" id="Fill-377" fill="#95DD49" sketch:type="MSShapeGroup"></path>
            <path d="M1277.477,470.205 L1283.197,460.318 L1276.026,462.094 L1277.477,470.205" id="Fill-378" fill="#86BF43" sketch:type="MSShapeGroup"></path>
            <path d="M1284.451,468.012 L1283.197,460.318 L1277.477,470.205 L1284.451,468.012" id="Fill-379" fill="#95C651" sketch:type="MSShapeGroup"></path>
            <path d="M1281.581,478.055 L1284.451,468.012 L1277.477,470.205 L1281.581,478.055" id="Fill-380" fill="#A0CB5B" sketch:type="MSShapeGroup"></path>
            <path d="M1274.424,479.564 L1281.581,478.055 L1277.477,470.205 L1274.424,479.564" id="Fill-381" fill="#B1D861" sketch:type="MSShapeGroup"></path>
            <path d="M1280.731,485.959 L1280.731,485.958 L1280.731,485.959 L1280.756,485.984 L1281.581,478.055 L1274.424,479.564 L1280.731,485.959" id="Fill-382" fill="#9DC447" sketch:type="MSShapeGroup"></path>
            <path d="M1280.731,485.959 L1274.424,479.564 L1274.347,487.99 L1280.723,485.976 L1280.731,485.959" id="Fill-383" fill="#97B542" sketch:type="MSShapeGroup"></path>
            <path d="M1280.737,485.972 L1280.738,485.971 L1280.737,485.973 L1280.744,485.988 L1280.756,485.984 L1280.731,485.959 L1280.737,485.972" id="Fill-384" fill="#97B542" sketch:type="MSShapeGroup"></path>
            <path d="M1277.192,494.219 L1277.192,494.218 L1277.192,494.219" id="Fill-385" fill="#A7BF50" sketch:type="MSShapeGroup"></path>
            <path d="M1277.208,494.211 L1282.948,491.112 L1280.744,485.988 L1280.729,485.993 L1277.208,494.211" id="Fill-386" fill="#A7BF50" sketch:type="MSShapeGroup"></path>
            <path d="M1280.731,485.958 L1280.731,485.959 L1280.731,485.958" id="Fill-387" fill="#A7BF50" sketch:type="MSShapeGroup"></path>
            <path d="M1280.729,485.993 L1280.744,485.988 L1280.737,485.973 L1280.729,485.993" id="Fill-388" fill="#A7BF50" sketch:type="MSShapeGroup"></path>
            <path d="M1280.737,485.972 L1280.731,485.959 L1280.723,485.976 L1280.737,485.972" id="Fill-389" fill="#A7BF50" sketch:type="MSShapeGroup"></path>
            <path d="M1277.198,494.233 L1277.208,494.211 L1277.192,494.219 L1277.198,494.233" id="Fill-390" fill="#97A851" sketch:type="MSShapeGroup"></path>
            <path d="M1274.347,487.99 L1277.192,494.218 L1280.714,485.997 L1274.347,487.99" id="Fill-391" fill="#97A851" sketch:type="MSShapeGroup"></path>
            <path d="M1280.738,485.971 L1280.737,485.972 L1280.737,485.973 L1280.738,485.971" id="Fill-392" fill="#97A851" sketch:type="MSShapeGroup"></path>
            <path d="M1280.723,485.976 L1274.347,487.99 L1280.714,485.997 L1280.723,485.976" id="Fill-393" fill="#97A851" sketch:type="MSShapeGroup"></path>
            <path d="M1280.714,485.997 L1277.192,494.218 L1277.192,494.219 L1277.208,494.211 L1280.729,485.993 L1280.714,485.997" id="Fill-394" fill="#97A851" sketch:type="MSShapeGroup"></path>
            <path d="M1280.714,485.997 L1280.729,485.993 L1280.737,485.973 L1280.737,485.972 L1280.723,485.976 L1280.714,485.997" id="Fill-395" fill="#97A851" sketch:type="MSShapeGroup"></path>
            <path d="M1279.733,499.643 L1283.403,506.441 L1285.927,498 L1286.535,495.938 L1279.733,499.643" id="Fill-396" fill="#DDE96E" sketch:type="MSShapeGroup"></path>
            <path id="Fill-397" fill="#DDE96E" sketch:type="MSShapeGroup"></path>
            <path d="M1290.226,502.811 L1286.533,495.972 L1285.927,498 L1283.426,506.482 L1290.226,502.811" id="Fill-398" fill="#D2DB58" sketch:type="MSShapeGroup"></path>
            <path d="M1283.384,506.505 L1283.426,506.482 L1283.403,506.441 L1283.384,506.505" id="Fill-399" fill="#D2DB58" sketch:type="MSShapeGroup"></path>
            <path d="M1283.426,506.482 L1283.426,506.482 L1285.927,498 L1283.403,506.441 L1283.426,506.482" id="Fill-400" fill="#D2DB58" sketch:type="MSShapeGroup"></path>
            <path d="M97.226,393.638 L90.628,402.169 L96.94,405.343 L97.226,393.638" id="Fill-401" fill="#FF62CD" sketch:type="MSShapeGroup"></path>
            <path d="M103.297,398.56 L97.226,393.638 L96.94,405.343 L103.297,398.56" id="Fill-402" fill="#FB76D6" sketch:type="MSShapeGroup"></path>
            <path d="M109.268,391.859 L97.226,393.638 L103.297,398.56 L109.268,391.859" id="Fill-403" fill="#FF62CD" sketch:type="MSShapeGroup"></path>
            <path d="M115.875,401.678 L109.268,391.859 L103.297,398.56 L115.875,401.678" id="Fill-404" fill="#EC4EC1" sketch:type="MSShapeGroup"></path>
            <path d="M119.389,396.639 L109.268,391.859 L115.875,401.678 L119.389,396.639" id="Fill-405" fill="#EF59CA" sketch:type="MSShapeGroup"></path>
            <path d="M118.33,410.029 L119.389,396.639 L115.875,401.678 L118.33,410.029" id="Fill-406" fill="#EC4EC1" sketch:type="MSShapeGroup"></path>
            <path d="M125.185,405.625 L119.389,396.639 L118.33,410.029 L125.185,405.625" id="Fill-407" fill="#EC47C5" sketch:type="MSShapeGroup"></path>
            <path d="M124.428,414.2 L125.185,405.625 L118.33,410.029 L124.428,414.2" id="Fill-408" fill="#DD47BC" sketch:type="MSShapeGroup"></path>
            <path d="M113.242,416.511 L124.428,414.2 L118.33,410.029 L113.242,416.511" id="Fill-409" fill="#BF41A7" sketch:type="MSShapeGroup"></path>
            <path d="M119.52,420.257 L124.428,414.2 L113.242,416.511 L119.52,420.257" id="Fill-410" fill="#C64FB5" sketch:type="MSShapeGroup"></path>
            <path d="M110.115,424.799 L119.52,420.257 L113.242,416.511 L110.115,424.799" id="Fill-411" fill="#CB59BF" sketch:type="MSShapeGroup"></path>
            <path d="M104.225,420.461 L110.115,424.799 L113.242,416.511 L104.225,420.461" id="Fill-412" fill="#D85FD3" sketch:type="MSShapeGroup"></path>
            <path d="M103.65,429.424 L103.65,429.424 L103.648,429.46 L110.115,424.799 L104.225,420.461 L103.65,429.424" id="Fill-413" fill="#C445C1" sketch:type="MSShapeGroup"></path>
            <path d="M103.644,429.437 L103.645,429.438 L103.643,429.438 L103.636,429.453 L103.648,429.46 L103.65,429.424 L103.644,429.437" id="Fill-414" fill="#B140B5" sketch:type="MSShapeGroup"></path>
            <path d="M103.65,429.424 L104.225,420.461 L97.885,426.011 L103.632,429.43 L103.65,429.424" id="Fill-415" fill="#B140B5" sketch:type="MSShapeGroup"></path>
            <path d="M95.129,432.28 L95.13,432.281 L95.13,432.28 L95.129,432.28" id="Fill-416" fill="#B54EBF" sketch:type="MSShapeGroup"></path>
            <path d="M95.146,432.287 L101.279,434.508 L103.636,429.453 L103.623,429.445 L95.146,432.287" id="Fill-417" fill="#B54EBF" sketch:type="MSShapeGroup"></path>
            <path id="Fill-418" fill="#B54EBF" sketch:type="MSShapeGroup"></path>
            <path d="M103.623,429.445 L103.636,429.453 L103.643,429.438 L103.623,429.445" id="Fill-419" fill="#B54EBF" sketch:type="MSShapeGroup"></path>
            <path d="M103.644,429.437 L103.65,429.424 L103.632,429.43 L103.644,429.437" id="Fill-420" fill="#B54EBF" sketch:type="MSShapeGroup"></path>
            <path d="M97.885,426.011 L95.13,432.28 L103.61,429.437 L97.885,426.011" id="Fill-421" fill="#9E50A8" sketch:type="MSShapeGroup"></path>
            <path d="M95.123,432.294 L95.146,432.287 L95.13,432.281 L95.123,432.294" id="Fill-422" fill="#9E50A8" sketch:type="MSShapeGroup"></path>
            <path d="M103.632,429.43 L97.885,426.011 L103.61,429.437 L103.632,429.43" id="Fill-423" fill="#9E50A8" sketch:type="MSShapeGroup"></path>
            <path d="M103.645,429.438 L103.644,429.437 L103.643,429.438 L103.645,429.438" id="Fill-424" fill="#9E50A8" sketch:type="MSShapeGroup"></path>
            <path d="M103.61,429.437 L95.13,432.28 L95.13,432.281 L95.146,432.287 L103.623,429.445 L103.61,429.437" id="Fill-425" fill="#9E50A8" sketch:type="MSShapeGroup"></path>
            <path d="M103.61,429.437 L103.623,429.445 L103.643,429.438 L103.644,429.437 L103.632,429.43 L103.61,429.437" id="Fill-426" fill="#9E50A8" sketch:type="MSShapeGroup"></path>
            <path d="M100.064,440.397 L92.773,437.787 L90.141,445.05 L98.119,441.317 L100.064,440.397" id="Fill-427" fill="#CE6CE9" sketch:type="MSShapeGroup"></path>
            <path d="M97.391,447.727 L100.037,440.419 L98.119,441.317 L90.125,445.095 L90.141,445.05 L90.081,445.079 L97.391,447.727" id="Fill-428" fill="#BA56DB" sketch:type="MSShapeGroup"></path>
            <path d="M98.119,441.317 L90.141,445.05 L90.125,445.095 L98.119,441.317" id="Fill-429" fill="#BA56DB" sketch:type="MSShapeGroup"></path>
            <path d="M384,455.25 L411.595,412.5 L340.666,443.5 L384,455.25" id="Fill-430" fill="#66A6E2" sketch:type="MSShapeGroup"></path>
            <path d="M340.666,443.5 L411.595,412.5 L366.667,410 L340.666,443.5" id="Fill-431" fill="#6099D8" sketch:type="MSShapeGroup"></path>
            <path d="M391.334,486 L411.595,412.5 L384,455.25 L391.334,486" id="Fill-432" fill="#6099D8" sketch:type="MSShapeGroup"></path>
            <path d="M340.666,443.5 L391.334,486 L384,455.25 L340.666,443.5" id="Fill-433" fill="#4F91CE" sketch:type="MSShapeGroup"></path>
            <path d="M418.334,454 L411.595,412.5 L391.334,486 L418.334,454" id="Fill-434" fill="#63A4E0" sketch:type="MSShapeGroup"></path>
            <path d="M353,473.666 L391.334,486 L340.666,443.5 L353,473.666" id="Fill-435" fill="#5A98C6" sketch:type="MSShapeGroup"></path>
            <path d="M1019.315,490.119 L919.138,440.143 L953.833,491.891 L1019.315,490.119" id="Fill-436" fill="#8166E2" sketch:type="MSShapeGroup"></path>
            <path d="M975.626,448 L919.138,440.143 L1019.315,490.119 L975.626,448" id="Fill-437" fill="#7555D8" sketch:type="MSShapeGroup"></path>
            <path d="M945.622,538 L953.833,491.94 L919.138,440.216 L943.221,538 L945.622,538" id="Fill-438" fill="#7555D8" sketch:type="MSShapeGroup"></path>
            <path d="M945.622,538 L952.512,538 L1019.315,490.167 L953.833,491.965 L945.622,538" id="Fill-439" fill="#6A4FCE" sketch:type="MSShapeGroup"></path>
            <path d="M919.138,440.192 L910.666,503.393 L939.846,538 L943.221,538 L919.138,440.192" id="Fill-440" fill="#7E63E0" sketch:type="MSShapeGroup"></path>
            <path d="M962.174,538 L992.809,528.095 L1019.315,490.191 L952.512,538 L962.174,538" id="Fill-441" fill="#6E5AC6" sketch:type="MSShapeGroup"></path>
            <path d="M1032.828,151.599 L1015.615,104.139 L1007.34,137.576 L1032.828,151.599" id="Fill-442" fill="#74E242" sketch:type="MSShapeGroup"></path>
            <path d="M1037.318,123.402 L1015.615,104.139 L1032.828,151.599 L1037.318,123.402" id="Fill-443" fill="#70D848" sketch:type="MSShapeGroup"></path>
            <path d="M1015.615,104.139 L988.995,149.235 L1007.34,137.576 L1015.615,104.139" id="Fill-444" fill="#70D848" sketch:type="MSShapeGroup"></path>
            <path d="M1007.34,137.576 L988.995,149.235 L1032.828,151.599 L1007.34,137.576" id="Fill-445" fill="#6DCE41" sketch:type="MSShapeGroup"></path>
            <path d="M992.297,121.313 L988.995,149.235 L1015.615,104.139 L992.297,121.313" id="Fill-446" fill="#7FE054" sketch:type="MSShapeGroup"></path>
            <path d="M1032.828,151.599 L988.995,149.235 L1012.488,160.694 L1032.828,151.599" id="Fill-447" fill="#77C64C" sketch:type="MSShapeGroup"></path>
            <path d="M256.828,536.599 L239.615,489.139 L231.34,522.576 L256.828,536.599" id="Fill-448" fill="#74E242" sketch:type="MSShapeGroup"></path>
            <path d="M261.318,508.402 L239.615,489.139 L256.828,536.599 L261.318,508.402" id="Fill-449" fill="#70D848" sketch:type="MSShapeGroup"></path>
            <path d="M239.615,489.139 L212.994,534.235 L231.34,522.576 L239.615,489.139" id="Fill-450" fill="#70D848" sketch:type="MSShapeGroup"></path>
            <path d="M231.34,522.576 L212.994,534.235 L256.828,536.599 L231.34,522.576" id="Fill-451" fill="#6DCE41" sketch:type="MSShapeGroup"></path>
            <path d="M216.297,506.313 L212.994,534.235 L239.615,489.139 L216.297,506.313" id="Fill-452" fill="#7FE054" sketch:type="MSShapeGroup"></path>
            <path d="M256.828,536.648 L212.994,534.308 L220.515,538 L253.913,538 L256.828,536.648" id="Fill-453" fill="#77C64C" sketch:type="MSShapeGroup"></path>
            <path d="M506,60 L506,99 L528,101 L506,60" id="Fill-454" fill="#6CEFEF" sketch:type="MSShapeGroup"></path>
            <path d="M538,80.5 L506,60 L528,101 L538,80.5" id="Fill-455" fill="#64DFE2" sketch:type="MSShapeGroup"></path>
            <path d="M528,101 L506,99 L536.219,116 L528,101" id="Fill-456" fill="#64DFE2" sketch:type="MSShapeGroup"></path>
            <path d="M536.219,116 L538,80.5 L528,101 L536.219,116" id="Fill-457" fill="#89EFEF" sketch:type="MSShapeGroup"></path>
            <path d="M188.294,320.348 L167.811,333.279 L174.055,345.497 L188.294,320.348" id="Fill-458" fill="#6CEFEF" sketch:type="MSShapeGroup"></path>
            <path d="M188.137,343.952 L188.294,320.348 L174.055,345.497 L188.137,343.952" id="Fill-459" fill="#64DFE2" sketch:type="MSShapeGroup"></path>
            <path d="M174.055,345.497 L167.811,333.279 L168.901,354.787 L174.055,345.497" id="Fill-460" fill="#64DFE2" sketch:type="MSShapeGroup"></path>
            <path d="M168.901,354.787 L188.137,343.952 L174.055,345.497 L168.901,354.787" id="Fill-461" fill="#89EFEF" sketch:type="MSShapeGroup"></path>
            <path d="M1122.468,377.593 L1122.587,377.662 L1137.786,356.172 L1109.696,370.185 L1122.493,377.596 L1122.468,377.593" id="Fill-462" fill="#6CEFEF" sketch:type="MSShapeGroup"></path>
            <path d="M1137.692,356.106 L1112.071,354.931 L1109.591,370.124 L1137.692,356.106" id="Fill-463" fill="#64DFE2" sketch:type="MSShapeGroup"></path>
            <path d="M1109.685,370.19 L1109.696,370.185 L1109.591,370.124 L1099.217,375.186 L1122.468,377.593 L1109.685,370.19" id="Fill-464" fill="#64DFE2" sketch:type="MSShapeGroup"></path>
            <path d="M1122.468,377.593 L1122.493,377.596 L1109.696,370.185 L1109.685,370.19 L1122.468,377.593" id="Fill-465" fill="#64DFE2" sketch:type="MSShapeGroup"></path>
            <path d="M1112.071,354.931 L1099.217,375.186 L1109.591,370.124 L1112.071,354.931" id="Fill-466" fill="#89EFEF" sketch:type="MSShapeGroup"></path>
            <path d="M1138.739,306.24 L1138.846,306.225 L1137.806,285.594 L1127.266,307.861 L1138.756,306.229 L1138.739,306.24" id="Fill-467" fill="#6CEFEF" sketch:type="MSShapeGroup"></path>
            <path d="M1137.715,285.599 L1121.335,297.297 L1127.172,307.874 L1137.715,285.599" id="Fill-468" fill="#64DFE2" sketch:type="MSShapeGroup"></path>
            <path d="M1138.739,306.24 L1127.262,307.87 L1127.266,307.861 L1127.172,307.874 L1123.224,316.028 L1138.739,306.24" id="Fill-469" fill="#64DFE2" sketch:type="MSShapeGroup"></path>
            <path d="M1138.739,306.24 L1138.756,306.229 L1127.266,307.861 L1127.262,307.87 L1138.739,306.24" id="Fill-470" fill="#64DFE2" sketch:type="MSShapeGroup"></path>
            <path d="M1127.172,307.874 L1121.335,297.297 L1123.224,316.028 L1127.172,307.874" id="Fill-471" fill="#89EFEF" sketch:type="MSShapeGroup"></path>
            <path d="M285.284,386.362 L307.147,394.117 L283.891,370.767 L283.724,370.895 L285.284,386.362" id="Fill-472" fill="#D3C222" sketch:type="MSShapeGroup"></path>
            <path d="M324.244,376.443 L283.983,370.697 L283.891,370.767 L307.147,394.117 L324.244,376.443" id="Fill-473" fill="#EFDE3F" sketch:type="MSShapeGroup"></path>
            <path d="M318.03,357.56 L298.651,354 L298.527,354.094 L324.244,376.443 L318.03,357.56" id="Fill-474" fill="#EBDC2F" sketch:type="MSShapeGroup"></path>
            <path d="M298.527,354.094 L283.983,370.697 L324.244,376.443 L298.527,354.094" id="Fill-475" fill="#F8E539" sketch:type="MSShapeGroup"></path>
            <path d="M324.59,376.668 L327.601,378.619 L318.03,357.56 L324.617,376.491 L324.59,376.668" id="Fill-476" fill="#F8E539" sketch:type="MSShapeGroup"></path>
            <path d="M324.617,376.491 L324.244,376.443 L324.59,376.668 L324.617,376.491" id="Fill-477" fill="#F8E539" sketch:type="MSShapeGroup"></path>
            <path d="M324.617,376.491 L318.03,357.56 L324.244,376.443 L324.617,376.491" id="Fill-478" fill="#F8E539" sketch:type="MSShapeGroup"></path>
            <path d="M324.59,376.668 L324.479,376.753 L308.083,393.408 L327.601,378.619 L324.59,376.668" id="Fill-479" fill="#F4E553" sketch:type="MSShapeGroup"></path>
            <path d="M324.59,376.668 L324.59,376.668 L324.244,376.443 L324.479,376.753 L324.59,376.668" id="Fill-480" fill="#F4E553" sketch:type="MSShapeGroup"></path>
            <path d="M324.479,376.753 L324.244,376.443 L307.147,394.117 L308.083,393.408 L324.479,376.753" id="Fill-481" fill="#F4E553" sketch:type="MSShapeGroup"></path>
            <path d="M285.284,386.362 L286.836,388.742 L307.147,394.117 L285.284,386.362" id="Fill-482" fill="#F8E539" sketch:type="MSShapeGroup"></path>
            <path d="M286.836,388.742 L307.711,396.247 L307.147,394.117 L286.836,388.742" id="Fill-483" fill="#D3C222" sketch:type="MSShapeGroup"></path>
            <path d="M307.358,394.144 L307.147,394.117 L307.711,396.247 L327.601,378.619 L308.083,393.408 L307.358,394.144" id="Fill-484" fill="#EBDC2F" sketch:type="MSShapeGroup"></path>
            <path d="M308.083,393.408 L307.147,394.117 L307.358,394.144 L308.083,393.408" id="Fill-485" fill="#EBDC2F" sketch:type="MSShapeGroup"></path>
            <path d="M319.617,359.599 L318.03,357.56 L327.601,378.619 L319.617,359.599" id="Fill-486" fill="#D3C222" sketch:type="MSShapeGroup"></path>
            <path d="M1.841,469.935 L16.807,475.244 L0.888,459.26 L0.773,459.347 L1.841,469.935" id="Fill-487" fill="#D3C222" sketch:type="MSShapeGroup"></path>
            <path d="M28.511,463.145 L0.951,459.212 L0.888,459.26 L16.807,475.244 L28.511,463.145" id="Fill-488" fill="#EFDE3F" sketch:type="MSShapeGroup"></path>
            <path d="M24.257,450.219 L10.992,447.782 L10.906,447.846 L28.511,463.145 L24.257,450.219" id="Fill-489" fill="#EBDC2F" sketch:type="MSShapeGroup"></path>
            <path d="M10.906,447.846 L0.951,459.212 L28.511,463.145 L10.906,447.846" id="Fill-490" fill="#F8E539" sketch:type="MSShapeGroup"></path>
            <path d="M28.748,463.299 L30.809,464.635 L24.257,450.219 L28.766,463.178 L28.748,463.299" id="Fill-491" fill="#F8E539" sketch:type="MSShapeGroup"></path>
            <path d="M28.766,463.178 L28.511,463.145 L28.748,463.299 L28.766,463.178" id="Fill-492" fill="#F8E539" sketch:type="MSShapeGroup"></path>
            <path d="M28.766,463.178 L24.257,450.219 L28.511,463.145 L28.766,463.178" id="Fill-493" fill="#F8E539" sketch:type="MSShapeGroup"></path>
            <path d="M28.748,463.3 L28.672,463.358 L17.447,474.759 L30.809,464.635 L28.748,463.299 L28.748,463.3" id="Fill-494" fill="#F4E553" sketch:type="MSShapeGroup"></path>
            <path d="M28.748,463.3 L28.748,463.299 L28.511,463.145 L28.672,463.358 L28.748,463.3" id="Fill-495" fill="#F4E553" sketch:type="MSShapeGroup"></path>
            <path d="M28.672,463.358 L28.511,463.145 L16.807,475.244 L17.447,474.759 L28.672,463.358" id="Fill-496" fill="#F4E553" sketch:type="MSShapeGroup"></path>
            <path d="M1.841,469.935 L2.903,471.565 L16.807,475.244 L1.841,469.935" id="Fill-497" fill="#F8E539" sketch:type="MSShapeGroup"></path>
            <path d="M2.903,471.565 L17.193,476.703 L16.807,475.244 L2.903,471.565" id="Fill-498" fill="#D3C222" sketch:type="MSShapeGroup"></path>
            <path d="M16.951,475.262 L16.807,475.244 L17.193,476.703 L30.809,464.635 L17.447,474.759 L16.951,475.262" id="Fill-499" fill="#EBDC2F" sketch:type="MSShapeGroup"></path>
            <path d="M17.447,474.759 L16.807,475.244 L16.951,475.262 L17.447,474.759" id="Fill-500" fill="#EBDC2F" sketch:type="MSShapeGroup"></path>
            <path d="M25.344,451.615 L24.257,450.219 L30.809,464.635 L25.344,451.615" id="Fill-501" fill="#D3C222" sketch:type="MSShapeGroup"></path>
            <path d="M1367.841,488.935 L1382.807,494.244 L1366.888,478.26 L1366.772,478.347 L1367.841,488.935" id="Fill-502" fill="#D3C222" sketch:type="MSShapeGroup"></path>
            <path d="M1394.511,482.145 L1366.95,478.212 L1366.888,478.26 L1382.807,494.244 L1394.511,482.145" id="Fill-503" fill="#EFDE3F" sketch:type="MSShapeGroup"></path>
            <path d="M1390.257,469.219 L1376.992,466.782 L1376.906,466.846 L1394.511,482.145 L1390.257,469.219" id="Fill-504" fill="#EBDC2F" sketch:type="MSShapeGroup"></path>
            <path d="M1376.906,466.846 L1366.95,478.212 L1394.511,482.145 L1376.906,466.846" id="Fill-505" fill="#F8E539" sketch:type="MSShapeGroup"></path>
            <path d="M1394.748,482.299 L1396.809,483.635 L1390.257,469.219 L1394.766,482.178 L1394.748,482.299" id="Fill-506" fill="#F8E539" sketch:type="MSShapeGroup"></path>
            <path d="M1394.766,482.178 L1394.511,482.145 L1394.748,482.299 L1394.766,482.178" id="Fill-507" fill="#F8E539" sketch:type="MSShapeGroup"></path>
            <path d="M1394.766,482.178 L1390.257,469.219 L1394.511,482.145 L1394.766,482.178" id="Fill-508" fill="#F8E539" sketch:type="MSShapeGroup"></path>
            <path d="M1394.748,482.3 L1394.671,482.358 L1383.447,493.759 L1396.809,483.635 L1394.748,482.299 L1394.748,482.3" id="Fill-509" fill="#F4E553" sketch:type="MSShapeGroup"></path>
            <path d="M1394.748,482.3 L1394.748,482.299 L1394.511,482.145 L1394.671,482.358 L1394.748,482.3" id="Fill-510" fill="#F4E553" sketch:type="MSShapeGroup"></path>
            <path d="M1394.671,482.358 L1394.511,482.145 L1382.807,494.244 L1383.447,493.759 L1394.671,482.358" id="Fill-511" fill="#F4E553" sketch:type="MSShapeGroup"></path>
            <path d="M1367.841,488.935 L1368.903,490.565 L1382.807,494.244 L1367.841,488.935" id="Fill-512" fill="#F8E539" sketch:type="MSShapeGroup"></path>
            <path d="M1368.903,490.565 L1383.193,495.703 L1382.807,494.244 L1368.903,490.565" id="Fill-513" fill="#D3C222" sketch:type="MSShapeGroup"></path>
            <path d="M1382.952,494.262 L1382.807,494.244 L1383.193,495.703 L1396.809,483.635 L1383.447,493.759 L1382.952,494.262" id="Fill-514" fill="#EBDC2F" sketch:type="MSShapeGroup"></path>
            <path d="M1383.447,493.759 L1382.807,494.244 L1382.952,494.262 L1383.447,493.759" id="Fill-515" fill="#EBDC2F" sketch:type="MSShapeGroup"></path>
            <path d="M1391.344,470.615 L1390.257,469.219 L1396.809,483.635 L1391.344,470.615" id="Fill-516" fill="#D3C222" sketch:type="MSShapeGroup"></path>
            <path d="M242.244,246.11 L242.041,246.144 L234.51,258.622 L247.151,272.857 L242.244,246.11" id="Fill-517" fill="#D3C222" sketch:type="MSShapeGroup"></path>
            <path d="M270.461,265.743 L242.356,246.091 L242.244,246.11 L247.151,272.857 L270.461,265.743" id="Fill-518" fill="#EFDE3F" sketch:type="MSShapeGroup"></path>
            <path d="M276.301,248.878 L263.223,238.808 L263.073,238.834 L270.461,265.743 L276.301,248.878" id="Fill-519" fill="#EBDC2F" sketch:type="MSShapeGroup"></path>
            <path d="M263.073,238.834 L242.356,246.091 L270.461,265.743 L263.073,238.834" id="Fill-520" fill="#F8E539" sketch:type="MSShapeGroup"></path>
            <path d="M270.604,266.047 L271.845,268.687 L276.301,248.878 L270.725,265.921 L270.604,266.047" id="Fill-521" fill="#F8E539" sketch:type="MSShapeGroup"></path>
            <path d="M270.725,265.921 L270.461,265.743 L270.604,266.047 L270.725,265.921" id="Fill-522" fill="#F8E539" sketch:type="MSShapeGroup"></path>
            <path d="M270.725,265.921 L276.301,248.878 L270.461,265.743 L270.725,265.921" id="Fill-523" fill="#F8E539" sketch:type="MSShapeGroup"></path>
            <path d="M270.603,266.047 L270.469,266.07 L248.28,272.666 L271.845,268.687 L270.604,266.047 L270.603,266.047" id="Fill-524" fill="#F4E553" sketch:type="MSShapeGroup"></path>
            <path d="M270.603,266.047 L270.604,266.047 L270.461,265.743 L270.469,266.07 L270.603,266.047" id="Fill-525" fill="#F4E553" sketch:type="MSShapeGroup"></path>
            <path d="M270.469,266.07 L270.461,265.743 L247.151,272.857 L248.28,272.666 L270.469,266.07" id="Fill-526" fill="#F4E553" sketch:type="MSShapeGroup"></path>
            <path d="M234.51,258.622 L234.372,261.039 L247.151,272.857 L234.51,258.622" id="Fill-527" fill="#F8E539" sketch:type="MSShapeGroup"></path>
            <path d="M247.151,272.857 L234.372,261.039 L246.386,274.708 L247.151,272.857" id="Fill-528" fill="#D3C222" sketch:type="MSShapeGroup"></path>
            <path d="M247.3,272.957 L247.151,272.857 L246.386,274.708 L271.845,268.687 L248.28,272.666 L247.3,272.957" id="Fill-529" fill="#EBDC2F" sketch:type="MSShapeGroup"></path>
            <path d="M248.28,272.666 L247.151,272.857 L247.3,272.957 L248.28,272.666" id="Fill-530" fill="#EBDC2F" sketch:type="MSShapeGroup"></path>
            <path d="M276.384,251.046 L276.301,248.878 L271.845,268.687 L276.384,251.046" id="Fill-531" fill="#D3C222" sketch:type="MSShapeGroup"></path>
            <path d="M349.406,324.461 L339.712,309.308 L339.465,309.303 L334.849,346.072 L349.406,324.461" id="Fill-532" fill="#D3C222" sketch:type="MSShapeGroup"></path>
            <path d="M334.849,346.072 L339.465,309.303 L339.33,309.301 L306.379,341.307 L334.849,346.072" id="Fill-533" fill="#EFDE3F" sketch:type="MSShapeGroup"></path>
            <path d="M313.982,303.815 L313.8,303.812 L298.512,319.943 L306.379,341.307 L313.982,303.815" id="Fill-534" fill="#EBDC2F" sketch:type="MSShapeGroup"></path>
            <path d="M339.33,309.301 L313.982,303.815 L306.379,341.307 L339.33,309.301" id="Fill-535" fill="#F8E539" sketch:type="MSShapeGroup"></path>
            <path d="M306.222,341.742 L306.07,341.598 L298.512,319.943 L304.853,345.525 L306.222,341.742" id="Fill-536" fill="#F8E539" sketch:type="MSShapeGroup"></path>
            <path d="M306.07,341.598 L306.222,341.742 L306.379,341.307 L306.07,341.598" id="Fill-537" fill="#F8E539" sketch:type="MSShapeGroup"></path>
            <path d="M306.379,341.307 L298.512,319.943 L306.07,341.598 L306.379,341.307" id="Fill-538" fill="#F8E539" sketch:type="MSShapeGroup"></path>
            <path d="M306.386,341.746 L306.222,341.743 L306.222,341.742 L304.853,345.525 L333.477,346.047 L306.386,341.746" id="Fill-539" fill="#F4E553" sketch:type="MSShapeGroup"></path>
            <path d="M306.386,341.746 L306.379,341.307 L306.222,341.742 L306.222,341.743 L306.386,341.746" id="Fill-540" fill="#F4E553" sketch:type="MSShapeGroup"></path>
            <path d="M333.477,346.047 L334.849,346.072 L306.379,341.307 L306.386,341.746 L333.477,346.047" id="Fill-541" fill="#F4E553" sketch:type="MSShapeGroup"></path>
            <path d="M349.69,327.665 L349.406,324.461 L334.849,346.072 L349.69,327.665" id="Fill-542" fill="#F8E539" sketch:type="MSShapeGroup"></path>
            <path d="M335.862,348.392 L349.69,327.665 L334.849,346.072 L335.862,348.392" id="Fill-543" fill="#D3C222" sketch:type="MSShapeGroup"></path>
            <path d="M334.673,346.237 L333.477,346.047 L304.853,345.525 L335.862,348.392 L334.849,346.072 L334.673,346.237" id="Fill-544" fill="#EBDC2F" sketch:type="MSShapeGroup"></path>
            <path d="M334.673,346.237 L334.849,346.072 L333.477,346.047 L334.673,346.237" id="Fill-545" fill="#EBDC2F" sketch:type="MSShapeGroup"></path>
            <path d="M304.853,345.525 L298.512,319.943 L298.517,322.859 L304.853,345.525" id="Fill-546" fill="#D3C222" sketch:type="MSShapeGroup"></path>
            <path d="M175.406,463.462 L165.712,448.308 L165.465,448.303 L160.849,485.072 L175.406,463.462" id="Fill-547" fill="#D3C222" sketch:type="MSShapeGroup"></path>
            <path d="M160.849,485.072 L165.465,448.303 L165.33,448.301 L132.379,480.307 L160.849,485.072" id="Fill-548" fill="#EFDE3F" sketch:type="MSShapeGroup"></path>
            <path d="M132.379,480.307 L139.982,442.815 L139.8,442.812 L124.512,458.943 L132.379,480.307" id="Fill-549" fill="#EBDC2F" sketch:type="MSShapeGroup"></path>
            <path d="M165.33,448.301 L139.982,442.815 L132.379,480.307 L165.33,448.301" id="Fill-550" fill="#F8E539" sketch:type="MSShapeGroup"></path>
            <path d="M132.07,480.598 L124.512,458.943 L130.853,484.525 L132.222,480.742 L132.07,480.598" id="Fill-551" fill="#F8E539" sketch:type="MSShapeGroup"></path>
            <path d="M132.222,480.742 L132.379,480.307 L132.07,480.598 L132.222,480.742" id="Fill-552" fill="#F8E539" sketch:type="MSShapeGroup"></path>
            <path d="M132.379,480.307 L124.512,458.943 L132.07,480.598 L132.379,480.307" id="Fill-553" fill="#F8E539" sketch:type="MSShapeGroup"></path>
            <path d="M132.386,480.746 L132.222,480.743 L132.222,480.742 L130.853,484.525 L159.477,485.047 L132.386,480.746" id="Fill-554" fill="#F4E553" sketch:type="MSShapeGroup"></path>
            <path d="M132.222,480.743 L132.386,480.746 L132.379,480.307 L132.222,480.742 L132.222,480.743" id="Fill-555" fill="#F4E553" sketch:type="MSShapeGroup"></path>
            <path d="M159.477,485.047 L160.849,485.072 L132.379,480.307 L132.386,480.746 L159.477,485.047" id="Fill-556" fill="#F4E553" sketch:type="MSShapeGroup"></path>
            <path d="M175.69,466.665 L175.406,463.462 L160.849,485.072 L175.69,466.665" id="Fill-557" fill="#F8E539" sketch:type="MSShapeGroup"></path>
            <path d="M161.862,487.392 L175.69,466.665 L160.849,485.072 L161.862,487.392" id="Fill-558" fill="#D3C222" sketch:type="MSShapeGroup"></path>
            <path d="M160.673,485.237 L159.477,485.047 L130.853,484.525 L161.862,487.392 L160.849,485.072 L160.673,485.237" id="Fill-559" fill="#EBDC2F" sketch:type="MSShapeGroup"></path>
            <path d="M160.673,485.237 L160.849,485.072 L159.477,485.047 L160.673,485.237" id="Fill-560" fill="#EBDC2F" sketch:type="MSShapeGroup"></path>
            <path d="M124.517,461.859 L130.853,484.525 L124.512,458.943 L124.517,461.859" id="Fill-561" fill="#D3C222" sketch:type="MSShapeGroup"></path>
        </g>
    </g>
</svg>